<?xml version="1.0" encoding="utf-8" standalone="no"?>
<!DOCTYPE svg PUBLIC "-//W3C//DTD SVG 1.1//EN"
  "http://www.w3.org/Graphics/SVG/1.1/DTD/svg11.dtd">
<svg xmlns:xlink="http://www.w3.org/1999/xlink" width="720pt" height="720pt" viewBox="0 0 720 720" xmlns="http://www.w3.org/2000/svg" version="1.1">
 <metadata>
  <rdf:RDF xmlns:dc="http://purl.org/dc/elements/1.1/" xmlns:cc="http://creativecommons.org/ns#" xmlns:rdf="http://www.w3.org/1999/02/22-rdf-syntax-ns#">
   <cc:Work>
    <dc:type rdf:resource="http://purl.org/dc/dcmitype/StillImage"/>
    <dc:date>2024-02-01T00:16:49.673725</dc:date>
    <dc:format>image/svg+xml</dc:format>
    <dc:creator>
     <cc:Agent>
      <dc:title>Matplotlib v3.5.1, https://matplotlib.org/</dc:title>
     </cc:Agent>
    </dc:creator>
   </cc:Work>
  </rdf:RDF>
 </metadata>
 <defs>
  <style type="text/css">*{stroke-linejoin: round; stroke-linecap: butt}</style>
 </defs>
 <g id="figure_1">
  <g id="patch_1">
   <path d="M 0 720 
L 720 720 
L 720 0 
L 0 0 
z
" style="fill: #87cefa"/>
  </g>
  <g id="axes_1">
   <g id="patch_2">
    <path d="M 38.31274 703.54351 
L 716.99976 703.54351 
L 716.99976 20.61447 
L 38.31274 20.61447 
z
" style="fill: #ffffff"/>
   </g>
   <g id="matplotlib.axis_1">
    <g id="xtick_1">
     <g id="line2d_1">
      <path d="M 86.790384 703.54351 
L 86.790384 20.61447 
" clip-path="url(#p0c048cc7dc)" style="fill: none; stroke: #b0b0b0; stroke-width: 0.8; stroke-linecap: square"/>
     </g>
     <g id="line2d_2"/>
     <g id="text_1">
      <!-- april_2023 -->
      <g transform="translate(60.493509 714.641948)scale(0.1 -0.1)">
       <defs>
        <path id="DejaVuSans-61" d="M 2194 1759 
Q 1497 1759 1228 1600 
Q 959 1441 959 1056 
Q 959 750 1161 570 
Q 1363 391 1709 391 
Q 2188 391 2477 730 
Q 2766 1069 2766 1631 
L 2766 1759 
L 2194 1759 
z
M 3341 1997 
L 3341 0 
L 2766 0 
L 2766 531 
Q 2569 213 2275 61 
Q 1981 -91 1556 -91 
Q 1019 -91 701 211 
Q 384 513 384 1019 
Q 384 1609 779 1909 
Q 1175 2209 1959 2209 
L 2766 2209 
L 2766 2266 
Q 2766 2663 2505 2880 
Q 2244 3097 1772 3097 
Q 1472 3097 1187 3025 
Q 903 2953 641 2809 
L 641 3341 
Q 956 3463 1253 3523 
Q 1550 3584 1831 3584 
Q 2591 3584 2966 3190 
Q 3341 2797 3341 1997 
z
" transform="scale(0.015625)"/>
        <path id="DejaVuSans-70" d="M 1159 525 
L 1159 -1331 
L 581 -1331 
L 581 3500 
L 1159 3500 
L 1159 2969 
Q 1341 3281 1617 3432 
Q 1894 3584 2278 3584 
Q 2916 3584 3314 3078 
Q 3713 2572 3713 1747 
Q 3713 922 3314 415 
Q 2916 -91 2278 -91 
Q 1894 -91 1617 61 
Q 1341 213 1159 525 
z
M 3116 1747 
Q 3116 2381 2855 2742 
Q 2594 3103 2138 3103 
Q 1681 3103 1420 2742 
Q 1159 2381 1159 1747 
Q 1159 1113 1420 752 
Q 1681 391 2138 391 
Q 2594 391 2855 752 
Q 3116 1113 3116 1747 
z
" transform="scale(0.015625)"/>
        <path id="DejaVuSans-72" d="M 2631 2963 
Q 2534 3019 2420 3045 
Q 2306 3072 2169 3072 
Q 1681 3072 1420 2755 
Q 1159 2438 1159 1844 
L 1159 0 
L 581 0 
L 581 3500 
L 1159 3500 
L 1159 2956 
Q 1341 3275 1631 3429 
Q 1922 3584 2338 3584 
Q 2397 3584 2469 3576 
Q 2541 3569 2628 3553 
L 2631 2963 
z
" transform="scale(0.015625)"/>
        <path id="DejaVuSans-69" d="M 603 3500 
L 1178 3500 
L 1178 0 
L 603 0 
L 603 3500 
z
M 603 4863 
L 1178 4863 
L 1178 4134 
L 603 4134 
L 603 4863 
z
" transform="scale(0.015625)"/>
        <path id="DejaVuSans-6c" d="M 603 4863 
L 1178 4863 
L 1178 0 
L 603 0 
L 603 4863 
z
" transform="scale(0.015625)"/>
        <path id="DejaVuSans-5f" d="M 3263 -1063 
L 3263 -1509 
L -63 -1509 
L -63 -1063 
L 3263 -1063 
z
" transform="scale(0.015625)"/>
        <path id="DejaVuSans-32" d="M 1228 531 
L 3431 531 
L 3431 0 
L 469 0 
L 469 531 
Q 828 903 1448 1529 
Q 2069 2156 2228 2338 
Q 2531 2678 2651 2914 
Q 2772 3150 2772 3378 
Q 2772 3750 2511 3984 
Q 2250 4219 1831 4219 
Q 1534 4219 1204 4116 
Q 875 4013 500 3803 
L 500 4441 
Q 881 4594 1212 4672 
Q 1544 4750 1819 4750 
Q 2544 4750 2975 4387 
Q 3406 4025 3406 3419 
Q 3406 3131 3298 2873 
Q 3191 2616 2906 2266 
Q 2828 2175 2409 1742 
Q 1991 1309 1228 531 
z
" transform="scale(0.015625)"/>
        <path id="DejaVuSans-30" d="M 2034 4250 
Q 1547 4250 1301 3770 
Q 1056 3291 1056 2328 
Q 1056 1369 1301 889 
Q 1547 409 2034 409 
Q 2525 409 2770 889 
Q 3016 1369 3016 2328 
Q 3016 3291 2770 3770 
Q 2525 4250 2034 4250 
z
M 2034 4750 
Q 2819 4750 3233 4129 
Q 3647 3509 3647 2328 
Q 3647 1150 3233 529 
Q 2819 -91 2034 -91 
Q 1250 -91 836 529 
Q 422 1150 422 2328 
Q 422 3509 836 4129 
Q 1250 4750 2034 4750 
z
" transform="scale(0.015625)"/>
        <path id="DejaVuSans-33" d="M 2597 2516 
Q 3050 2419 3304 2112 
Q 3559 1806 3559 1356 
Q 3559 666 3084 287 
Q 2609 -91 1734 -91 
Q 1441 -91 1130 -33 
Q 819 25 488 141 
L 488 750 
Q 750 597 1062 519 
Q 1375 441 1716 441 
Q 2309 441 2620 675 
Q 2931 909 2931 1356 
Q 2931 1769 2642 2001 
Q 2353 2234 1838 2234 
L 1294 2234 
L 1294 2753 
L 1863 2753 
Q 2328 2753 2575 2939 
Q 2822 3125 2822 3475 
Q 2822 3834 2567 4026 
Q 2313 4219 1838 4219 
Q 1578 4219 1281 4162 
Q 984 4106 628 3988 
L 628 4550 
Q 988 4650 1302 4700 
Q 1616 4750 1894 4750 
Q 2613 4750 3031 4423 
Q 3450 4097 3450 3541 
Q 3450 3153 3228 2886 
Q 3006 2619 2597 2516 
z
" transform="scale(0.015625)"/>
       </defs>
       <use xlink:href="#DejaVuSans-61"/>
       <use xlink:href="#DejaVuSans-70" x="61.279297"/>
       <use xlink:href="#DejaVuSans-72" x="124.755859"/>
       <use xlink:href="#DejaVuSans-69" x="165.869141"/>
       <use xlink:href="#DejaVuSans-6c" x="193.652344"/>
       <use xlink:href="#DejaVuSans-5f" x="221.435547"/>
       <use xlink:href="#DejaVuSans-32" x="271.435547"/>
       <use xlink:href="#DejaVuSans-30" x="335.058594"/>
       <use xlink:href="#DejaVuSans-32" x="398.681641"/>
       <use xlink:href="#DejaVuSans-33" x="462.304688"/>
      </g>
     </g>
    </g>
    <g id="xtick_2">
     <g id="line2d_3">
      <path d="M 183.745673 703.54351 
L 183.745673 20.61447 
" clip-path="url(#p0c048cc7dc)" style="fill: none; stroke: #b0b0b0; stroke-width: 0.8; stroke-linecap: square"/>
     </g>
     <g id="line2d_4"/>
     <g id="text_2">
      <!-- september_2023 -->
      <g transform="translate(141.451923 714.641948)scale(0.1 -0.1)">
       <defs>
        <path id="DejaVuSans-73" d="M 2834 3397 
L 2834 2853 
Q 2591 2978 2328 3040 
Q 2066 3103 1784 3103 
Q 1356 3103 1142 2972 
Q 928 2841 928 2578 
Q 928 2378 1081 2264 
Q 1234 2150 1697 2047 
L 1894 2003 
Q 2506 1872 2764 1633 
Q 3022 1394 3022 966 
Q 3022 478 2636 193 
Q 2250 -91 1575 -91 
Q 1294 -91 989 -36 
Q 684 19 347 128 
L 347 722 
Q 666 556 975 473 
Q 1284 391 1588 391 
Q 1994 391 2212 530 
Q 2431 669 2431 922 
Q 2431 1156 2273 1281 
Q 2116 1406 1581 1522 
L 1381 1569 
Q 847 1681 609 1914 
Q 372 2147 372 2553 
Q 372 3047 722 3315 
Q 1072 3584 1716 3584 
Q 2034 3584 2315 3537 
Q 2597 3491 2834 3397 
z
" transform="scale(0.015625)"/>
        <path id="DejaVuSans-65" d="M 3597 1894 
L 3597 1613 
L 953 1613 
Q 991 1019 1311 708 
Q 1631 397 2203 397 
Q 2534 397 2845 478 
Q 3156 559 3463 722 
L 3463 178 
Q 3153 47 2828 -22 
Q 2503 -91 2169 -91 
Q 1331 -91 842 396 
Q 353 884 353 1716 
Q 353 2575 817 3079 
Q 1281 3584 2069 3584 
Q 2775 3584 3186 3129 
Q 3597 2675 3597 1894 
z
M 3022 2063 
Q 3016 2534 2758 2815 
Q 2500 3097 2075 3097 
Q 1594 3097 1305 2825 
Q 1016 2553 972 2059 
L 3022 2063 
z
" transform="scale(0.015625)"/>
        <path id="DejaVuSans-74" d="M 1172 4494 
L 1172 3500 
L 2356 3500 
L 2356 3053 
L 1172 3053 
L 1172 1153 
Q 1172 725 1289 603 
Q 1406 481 1766 481 
L 2356 481 
L 2356 0 
L 1766 0 
Q 1100 0 847 248 
Q 594 497 594 1153 
L 594 3053 
L 172 3053 
L 172 3500 
L 594 3500 
L 594 4494 
L 1172 4494 
z
" transform="scale(0.015625)"/>
        <path id="DejaVuSans-6d" d="M 3328 2828 
Q 3544 3216 3844 3400 
Q 4144 3584 4550 3584 
Q 5097 3584 5394 3201 
Q 5691 2819 5691 2113 
L 5691 0 
L 5113 0 
L 5113 2094 
Q 5113 2597 4934 2840 
Q 4756 3084 4391 3084 
Q 3944 3084 3684 2787 
Q 3425 2491 3425 1978 
L 3425 0 
L 2847 0 
L 2847 2094 
Q 2847 2600 2669 2842 
Q 2491 3084 2119 3084 
Q 1678 3084 1418 2786 
Q 1159 2488 1159 1978 
L 1159 0 
L 581 0 
L 581 3500 
L 1159 3500 
L 1159 2956 
Q 1356 3278 1631 3431 
Q 1906 3584 2284 3584 
Q 2666 3584 2933 3390 
Q 3200 3197 3328 2828 
z
" transform="scale(0.015625)"/>
        <path id="DejaVuSans-62" d="M 3116 1747 
Q 3116 2381 2855 2742 
Q 2594 3103 2138 3103 
Q 1681 3103 1420 2742 
Q 1159 2381 1159 1747 
Q 1159 1113 1420 752 
Q 1681 391 2138 391 
Q 2594 391 2855 752 
Q 3116 1113 3116 1747 
z
M 1159 2969 
Q 1341 3281 1617 3432 
Q 1894 3584 2278 3584 
Q 2916 3584 3314 3078 
Q 3713 2572 3713 1747 
Q 3713 922 3314 415 
Q 2916 -91 2278 -91 
Q 1894 -91 1617 61 
Q 1341 213 1159 525 
L 1159 0 
L 581 0 
L 581 4863 
L 1159 4863 
L 1159 2969 
z
" transform="scale(0.015625)"/>
       </defs>
       <use xlink:href="#DejaVuSans-73"/>
       <use xlink:href="#DejaVuSans-65" x="52.099609"/>
       <use xlink:href="#DejaVuSans-70" x="113.623047"/>
       <use xlink:href="#DejaVuSans-74" x="177.099609"/>
       <use xlink:href="#DejaVuSans-65" x="216.308594"/>
       <use xlink:href="#DejaVuSans-6d" x="277.832031"/>
       <use xlink:href="#DejaVuSans-62" x="375.244141"/>
       <use xlink:href="#DejaVuSans-65" x="438.720703"/>
       <use xlink:href="#DejaVuSans-72" x="500.244141"/>
       <use xlink:href="#DejaVuSans-5f" x="541.357422"/>
       <use xlink:href="#DejaVuSans-32" x="591.357422"/>
       <use xlink:href="#DejaVuSans-30" x="654.980469"/>
       <use xlink:href="#DejaVuSans-32" x="718.603516"/>
       <use xlink:href="#DejaVuSans-33" x="782.226562"/>
      </g>
     </g>
    </g>
    <g id="xtick_3">
     <g id="line2d_5">
      <path d="M 280.700961 703.54351 
L 280.700961 20.61447 
" clip-path="url(#p0c048cc7dc)" style="fill: none; stroke: #b0b0b0; stroke-width: 0.8; stroke-linecap: square"/>
     </g>
     <g id="line2d_6"/>
     <g id="text_3">
      <!-- october_2023 -->
      <g transform="translate(246.341586 714.641948)scale(0.1 -0.1)">
       <defs>
        <path id="DejaVuSans-6f" d="M 1959 3097 
Q 1497 3097 1228 2736 
Q 959 2375 959 1747 
Q 959 1119 1226 758 
Q 1494 397 1959 397 
Q 2419 397 2687 759 
Q 2956 1122 2956 1747 
Q 2956 2369 2687 2733 
Q 2419 3097 1959 3097 
z
M 1959 3584 
Q 2709 3584 3137 3096 
Q 3566 2609 3566 1747 
Q 3566 888 3137 398 
Q 2709 -91 1959 -91 
Q 1206 -91 779 398 
Q 353 888 353 1747 
Q 353 2609 779 3096 
Q 1206 3584 1959 3584 
z
" transform="scale(0.015625)"/>
        <path id="DejaVuSans-63" d="M 3122 3366 
L 3122 2828 
Q 2878 2963 2633 3030 
Q 2388 3097 2138 3097 
Q 1578 3097 1268 2742 
Q 959 2388 959 1747 
Q 959 1106 1268 751 
Q 1578 397 2138 397 
Q 2388 397 2633 464 
Q 2878 531 3122 666 
L 3122 134 
Q 2881 22 2623 -34 
Q 2366 -91 2075 -91 
Q 1284 -91 818 406 
Q 353 903 353 1747 
Q 353 2603 823 3093 
Q 1294 3584 2113 3584 
Q 2378 3584 2631 3529 
Q 2884 3475 3122 3366 
z
" transform="scale(0.015625)"/>
       </defs>
       <use xlink:href="#DejaVuSans-6f"/>
       <use xlink:href="#DejaVuSans-63" x="61.181641"/>
       <use xlink:href="#DejaVuSans-74" x="116.162109"/>
       <use xlink:href="#DejaVuSans-6f" x="155.371094"/>
       <use xlink:href="#DejaVuSans-62" x="216.552734"/>
       <use xlink:href="#DejaVuSans-65" x="280.029297"/>
       <use xlink:href="#DejaVuSans-72" x="341.552734"/>
       <use xlink:href="#DejaVuSans-5f" x="382.666016"/>
       <use xlink:href="#DejaVuSans-32" x="432.666016"/>
       <use xlink:href="#DejaVuSans-30" x="496.289062"/>
       <use xlink:href="#DejaVuSans-32" x="559.912109"/>
       <use xlink:href="#DejaVuSans-33" x="623.535156"/>
      </g>
     </g>
    </g>
    <g id="xtick_4">
     <g id="line2d_7">
      <path d="M 377.65625 703.54351 
L 377.65625 20.61447 
" clip-path="url(#p0c048cc7dc)" style="fill: none; stroke: #b0b0b0; stroke-width: 0.8; stroke-linecap: square"/>
     </g>
     <g id="line2d_8"/>
     <g id="text_4">
      <!-- november_2023 -->
      <g transform="translate(336.990625 714.641948)scale(0.1 -0.1)">
       <defs>
        <path id="DejaVuSans-6e" d="M 3513 2113 
L 3513 0 
L 2938 0 
L 2938 2094 
Q 2938 2591 2744 2837 
Q 2550 3084 2163 3084 
Q 1697 3084 1428 2787 
Q 1159 2491 1159 1978 
L 1159 0 
L 581 0 
L 581 3500 
L 1159 3500 
L 1159 2956 
Q 1366 3272 1645 3428 
Q 1925 3584 2291 3584 
Q 2894 3584 3203 3211 
Q 3513 2838 3513 2113 
z
" transform="scale(0.015625)"/>
        <path id="DejaVuSans-76" d="M 191 3500 
L 800 3500 
L 1894 563 
L 2988 3500 
L 3597 3500 
L 2284 0 
L 1503 0 
L 191 3500 
z
" transform="scale(0.015625)"/>
       </defs>
       <use xlink:href="#DejaVuSans-6e"/>
       <use xlink:href="#DejaVuSans-6f" x="63.378906"/>
       <use xlink:href="#DejaVuSans-76" x="124.560547"/>
       <use xlink:href="#DejaVuSans-65" x="183.740234"/>
       <use xlink:href="#DejaVuSans-6d" x="245.263672"/>
       <use xlink:href="#DejaVuSans-62" x="342.675781"/>
       <use xlink:href="#DejaVuSans-65" x="406.152344"/>
       <use xlink:href="#DejaVuSans-72" x="467.675781"/>
       <use xlink:href="#DejaVuSans-5f" x="508.789062"/>
       <use xlink:href="#DejaVuSans-32" x="558.789062"/>
       <use xlink:href="#DejaVuSans-30" x="622.412109"/>
       <use xlink:href="#DejaVuSans-32" x="686.035156"/>
       <use xlink:href="#DejaVuSans-33" x="749.658203"/>
      </g>
     </g>
    </g>
    <g id="xtick_5">
     <g id="line2d_9">
      <path d="M 474.611539 703.54351 
L 474.611539 20.61447 
" clip-path="url(#p0c048cc7dc)" style="fill: none; stroke: #b0b0b0; stroke-width: 0.8; stroke-linecap: square"/>
     </g>
     <g id="line2d_10"/>
     <g id="text_5">
      <!-- december_2023 -->
      <g transform="translate(434.133414 714.641948)scale(0.1 -0.1)">
       <defs>
        <path id="DejaVuSans-64" d="M 2906 2969 
L 2906 4863 
L 3481 4863 
L 3481 0 
L 2906 0 
L 2906 525 
Q 2725 213 2448 61 
Q 2172 -91 1784 -91 
Q 1150 -91 751 415 
Q 353 922 353 1747 
Q 353 2572 751 3078 
Q 1150 3584 1784 3584 
Q 2172 3584 2448 3432 
Q 2725 3281 2906 2969 
z
M 947 1747 
Q 947 1113 1208 752 
Q 1469 391 1925 391 
Q 2381 391 2643 752 
Q 2906 1113 2906 1747 
Q 2906 2381 2643 2742 
Q 2381 3103 1925 3103 
Q 1469 3103 1208 2742 
Q 947 2381 947 1747 
z
" transform="scale(0.015625)"/>
       </defs>
       <use xlink:href="#DejaVuSans-64"/>
       <use xlink:href="#DejaVuSans-65" x="63.476562"/>
       <use xlink:href="#DejaVuSans-63" x="125"/>
       <use xlink:href="#DejaVuSans-65" x="179.980469"/>
       <use xlink:href="#DejaVuSans-6d" x="241.503906"/>
       <use xlink:href="#DejaVuSans-62" x="338.916016"/>
       <use xlink:href="#DejaVuSans-65" x="402.392578"/>
       <use xlink:href="#DejaVuSans-72" x="463.916016"/>
       <use xlink:href="#DejaVuSans-5f" x="505.029297"/>
       <use xlink:href="#DejaVuSans-32" x="555.029297"/>
       <use xlink:href="#DejaVuSans-30" x="618.652344"/>
       <use xlink:href="#DejaVuSans-32" x="682.275391"/>
       <use xlink:href="#DejaVuSans-33" x="745.898438"/>
      </g>
     </g>
    </g>
    <g id="xtick_6">
     <g id="line2d_11">
      <path d="M 571.566827 703.54351 
L 571.566827 20.61447 
" clip-path="url(#p0c048cc7dc)" style="fill: none; stroke: #b0b0b0; stroke-width: 0.8; stroke-linecap: square"/>
     </g>
     <g id="line2d_12"/>
     <g id="text_6">
      <!-- january_2024 -->
      <g transform="translate(537.472296 714.641948)scale(0.1 -0.1)">
       <defs>
        <path id="DejaVuSans-6a" d="M 603 3500 
L 1178 3500 
L 1178 -63 
Q 1178 -731 923 -1031 
Q 669 -1331 103 -1331 
L -116 -1331 
L -116 -844 
L 38 -844 
Q 366 -844 484 -692 
Q 603 -541 603 -63 
L 603 3500 
z
M 603 4863 
L 1178 4863 
L 1178 4134 
L 603 4134 
L 603 4863 
z
" transform="scale(0.015625)"/>
        <path id="DejaVuSans-75" d="M 544 1381 
L 544 3500 
L 1119 3500 
L 1119 1403 
Q 1119 906 1312 657 
Q 1506 409 1894 409 
Q 2359 409 2629 706 
Q 2900 1003 2900 1516 
L 2900 3500 
L 3475 3500 
L 3475 0 
L 2900 0 
L 2900 538 
Q 2691 219 2414 64 
Q 2138 -91 1772 -91 
Q 1169 -91 856 284 
Q 544 659 544 1381 
z
M 1991 3584 
L 1991 3584 
z
" transform="scale(0.015625)"/>
        <path id="DejaVuSans-79" d="M 2059 -325 
Q 1816 -950 1584 -1140 
Q 1353 -1331 966 -1331 
L 506 -1331 
L 506 -850 
L 844 -850 
Q 1081 -850 1212 -737 
Q 1344 -625 1503 -206 
L 1606 56 
L 191 3500 
L 800 3500 
L 1894 763 
L 2988 3500 
L 3597 3500 
L 2059 -325 
z
" transform="scale(0.015625)"/>
        <path id="DejaVuSans-34" d="M 2419 4116 
L 825 1625 
L 2419 1625 
L 2419 4116 
z
M 2253 4666 
L 3047 4666 
L 3047 1625 
L 3713 1625 
L 3713 1100 
L 3047 1100 
L 3047 0 
L 2419 0 
L 2419 1100 
L 313 1100 
L 313 1709 
L 2253 4666 
z
" transform="scale(0.015625)"/>
       </defs>
       <use xlink:href="#DejaVuSans-6a"/>
       <use xlink:href="#DejaVuSans-61" x="27.783203"/>
       <use xlink:href="#DejaVuSans-6e" x="89.0625"/>
       <use xlink:href="#DejaVuSans-75" x="152.441406"/>
       <use xlink:href="#DejaVuSans-61" x="215.820312"/>
       <use xlink:href="#DejaVuSans-72" x="277.099609"/>
       <use xlink:href="#DejaVuSans-79" x="318.212891"/>
       <use xlink:href="#DejaVuSans-5f" x="377.392578"/>
       <use xlink:href="#DejaVuSans-32" x="427.392578"/>
       <use xlink:href="#DejaVuSans-30" x="491.015625"/>
       <use xlink:href="#DejaVuSans-32" x="554.638672"/>
       <use xlink:href="#DejaVuSans-34" x="618.261719"/>
      </g>
     </g>
    </g>
    <g id="xtick_7">
     <g id="line2d_13">
      <path d="M 668.522116 703.54351 
L 668.522116 20.61447 
" clip-path="url(#p0c048cc7dc)" style="fill: none; stroke: #b0b0b0; stroke-width: 0.8; stroke-linecap: square"/>
     </g>
     <g id="line2d_14"/>
     <g id="text_7">
      <!-- february_2024 -->
      <g transform="translate(631.983053 714.641948)scale(0.1 -0.1)">
       <defs>
        <path id="DejaVuSans-66" d="M 2375 4863 
L 2375 4384 
L 1825 4384 
Q 1516 4384 1395 4259 
Q 1275 4134 1275 3809 
L 1275 3500 
L 2222 3500 
L 2222 3053 
L 1275 3053 
L 1275 0 
L 697 0 
L 697 3053 
L 147 3053 
L 147 3500 
L 697 3500 
L 697 3744 
Q 697 4328 969 4595 
Q 1241 4863 1831 4863 
L 2375 4863 
z
" transform="scale(0.015625)"/>
       </defs>
       <use xlink:href="#DejaVuSans-66"/>
       <use xlink:href="#DejaVuSans-65" x="35.205078"/>
       <use xlink:href="#DejaVuSans-62" x="96.728516"/>
       <use xlink:href="#DejaVuSans-72" x="160.205078"/>
       <use xlink:href="#DejaVuSans-75" x="201.318359"/>
       <use xlink:href="#DejaVuSans-61" x="264.697266"/>
       <use xlink:href="#DejaVuSans-72" x="325.976562"/>
       <use xlink:href="#DejaVuSans-79" x="367.089844"/>
       <use xlink:href="#DejaVuSans-5f" x="426.269531"/>
       <use xlink:href="#DejaVuSans-32" x="476.269531"/>
       <use xlink:href="#DejaVuSans-30" x="539.892578"/>
       <use xlink:href="#DejaVuSans-32" x="603.515625"/>
       <use xlink:href="#DejaVuSans-34" x="667.138672"/>
      </g>
     </g>
    </g>
   </g>
   <g id="matplotlib.axis_2">
    <g id="ytick_1">
     <g id="line2d_15">
      <path d="M 38.31274 695.215107 
L 716.99976 695.215107 
" clip-path="url(#p0c048cc7dc)" style="fill: none; stroke: #b0b0b0; stroke-width: 0.8; stroke-linecap: square"/>
     </g>
     <g id="line2d_16"/>
     <g id="text_8">
      <!-- 0 -->
      <g transform="translate(28.45024 699.014326)scale(0.1 -0.1)">
       <use xlink:href="#DejaVuSans-30"/>
      </g>
     </g>
    </g>
    <g id="ytick_2">
     <g id="line2d_17">
      <path d="M 38.31274 574.074701 
L 716.99976 574.074701 
" clip-path="url(#p0c048cc7dc)" style="fill: none; stroke: #b0b0b0; stroke-width: 0.8; stroke-linecap: square"/>
     </g>
     <g id="line2d_18"/>
     <g id="text_9">
      <!-- 2000 -->
      <g transform="translate(9.36274 577.87392)scale(0.1 -0.1)">
       <use xlink:href="#DejaVuSans-32"/>
       <use xlink:href="#DejaVuSans-30" x="63.623047"/>
       <use xlink:href="#DejaVuSans-30" x="127.246094"/>
       <use xlink:href="#DejaVuSans-30" x="190.869141"/>
      </g>
     </g>
    </g>
    <g id="ytick_3">
     <g id="line2d_19">
      <path d="M 38.31274 452.934295 
L 716.99976 452.934295 
" clip-path="url(#p0c048cc7dc)" style="fill: none; stroke: #b0b0b0; stroke-width: 0.8; stroke-linecap: square"/>
     </g>
     <g id="line2d_20"/>
     <g id="text_10">
      <!-- 4000 -->
      <g transform="translate(9.36274 456.733513)scale(0.1 -0.1)">
       <use xlink:href="#DejaVuSans-34"/>
       <use xlink:href="#DejaVuSans-30" x="63.623047"/>
       <use xlink:href="#DejaVuSans-30" x="127.246094"/>
       <use xlink:href="#DejaVuSans-30" x="190.869141"/>
      </g>
     </g>
    </g>
    <g id="ytick_4">
     <g id="line2d_21">
      <path d="M 38.31274 331.793888 
L 716.99976 331.793888 
" clip-path="url(#p0c048cc7dc)" style="fill: none; stroke: #b0b0b0; stroke-width: 0.8; stroke-linecap: square"/>
     </g>
     <g id="line2d_22"/>
     <g id="text_11">
      <!-- 6000 -->
      <g transform="translate(9.36274 335.593107)scale(0.1 -0.1)">
       <defs>
        <path id="DejaVuSans-36" d="M 2113 2584 
Q 1688 2584 1439 2293 
Q 1191 2003 1191 1497 
Q 1191 994 1439 701 
Q 1688 409 2113 409 
Q 2538 409 2786 701 
Q 3034 994 3034 1497 
Q 3034 2003 2786 2293 
Q 2538 2584 2113 2584 
z
M 3366 4563 
L 3366 3988 
Q 3128 4100 2886 4159 
Q 2644 4219 2406 4219 
Q 1781 4219 1451 3797 
Q 1122 3375 1075 2522 
Q 1259 2794 1537 2939 
Q 1816 3084 2150 3084 
Q 2853 3084 3261 2657 
Q 3669 2231 3669 1497 
Q 3669 778 3244 343 
Q 2819 -91 2113 -91 
Q 1303 -91 875 529 
Q 447 1150 447 2328 
Q 447 3434 972 4092 
Q 1497 4750 2381 4750 
Q 2619 4750 2861 4703 
Q 3103 4656 3366 4563 
z
" transform="scale(0.015625)"/>
       </defs>
       <use xlink:href="#DejaVuSans-36"/>
       <use xlink:href="#DejaVuSans-30" x="63.623047"/>
       <use xlink:href="#DejaVuSans-30" x="127.246094"/>
       <use xlink:href="#DejaVuSans-30" x="190.869141"/>
      </g>
     </g>
    </g>
    <g id="ytick_5">
     <g id="line2d_23">
      <path d="M 38.31274 210.653482 
L 716.99976 210.653482 
" clip-path="url(#p0c048cc7dc)" style="fill: none; stroke: #b0b0b0; stroke-width: 0.8; stroke-linecap: square"/>
     </g>
     <g id="line2d_24"/>
     <g id="text_12">
      <!-- 8000 -->
      <g transform="translate(9.36274 214.452701)scale(0.1 -0.1)">
       <defs>
        <path id="DejaVuSans-38" d="M 2034 2216 
Q 1584 2216 1326 1975 
Q 1069 1734 1069 1313 
Q 1069 891 1326 650 
Q 1584 409 2034 409 
Q 2484 409 2743 651 
Q 3003 894 3003 1313 
Q 3003 1734 2745 1975 
Q 2488 2216 2034 2216 
z
M 1403 2484 
Q 997 2584 770 2862 
Q 544 3141 544 3541 
Q 544 4100 942 4425 
Q 1341 4750 2034 4750 
Q 2731 4750 3128 4425 
Q 3525 4100 3525 3541 
Q 3525 3141 3298 2862 
Q 3072 2584 2669 2484 
Q 3125 2378 3379 2068 
Q 3634 1759 3634 1313 
Q 3634 634 3220 271 
Q 2806 -91 2034 -91 
Q 1263 -91 848 271 
Q 434 634 434 1313 
Q 434 1759 690 2068 
Q 947 2378 1403 2484 
z
M 1172 3481 
Q 1172 3119 1398 2916 
Q 1625 2713 2034 2713 
Q 2441 2713 2670 2916 
Q 2900 3119 2900 3481 
Q 2900 3844 2670 4047 
Q 2441 4250 2034 4250 
Q 1625 4250 1398 4047 
Q 1172 3844 1172 3481 
z
" transform="scale(0.015625)"/>
       </defs>
       <use xlink:href="#DejaVuSans-38"/>
       <use xlink:href="#DejaVuSans-30" x="63.623047"/>
       <use xlink:href="#DejaVuSans-30" x="127.246094"/>
       <use xlink:href="#DejaVuSans-30" x="190.869141"/>
      </g>
     </g>
    </g>
    <g id="ytick_6">
     <g id="line2d_25">
      <path d="M 38.31274 89.513076 
L 716.99976 89.513076 
" clip-path="url(#p0c048cc7dc)" style="fill: none; stroke: #b0b0b0; stroke-width: 0.8; stroke-linecap: square"/>
     </g>
     <g id="line2d_26"/>
     <g id="text_13">
      <!-- 10000 -->
      <g transform="translate(3.00024 93.312295)scale(0.1 -0.1)">
       <defs>
        <path id="DejaVuSans-31" d="M 794 531 
L 1825 531 
L 1825 4091 
L 703 3866 
L 703 4441 
L 1819 4666 
L 2450 4666 
L 2450 531 
L 3481 531 
L 3481 0 
L 794 0 
L 794 531 
z
" transform="scale(0.015625)"/>
       </defs>
       <use xlink:href="#DejaVuSans-31"/>
       <use xlink:href="#DejaVuSans-30" x="63.623047"/>
       <use xlink:href="#DejaVuSans-30" x="127.246094"/>
       <use xlink:href="#DejaVuSans-30" x="190.869141"/>
       <use xlink:href="#DejaVuSans-30" x="254.492188"/>
      </g>
     </g>
    </g>
   </g>
   <g id="line2d_27">
    <path d="M 62.551562 518.532843 
L 111.029206 518.532843 
L 111.029206 421.702784 
L 62.551562 421.702784 
L 62.551562 518.532843 
" clip-path="url(#p0c048cc7dc)" style="fill: none; stroke: #000000; stroke-linecap: square"/>
   </g>
   <g id="line2d_28">
    <path d="M 86.790384 518.532843 
L 86.790384 659.963249 
" clip-path="url(#p0c048cc7dc)" style="fill: none; stroke: #000000; stroke-linecap: square"/>
   </g>
   <g id="line2d_29">
    <path d="M 86.790384 421.702784 
L 86.790384 300.192043 
" clip-path="url(#p0c048cc7dc)" style="fill: none; stroke: #000000; stroke-linecap: square"/>
   </g>
   <g id="line2d_30">
    <path d="M 74.670973 659.963249 
L 98.909795 659.963249 
" clip-path="url(#p0c048cc7dc)" style="fill: none; stroke: #000000; stroke-linecap: square"/>
   </g>
   <g id="line2d_31">
    <path d="M 74.670973 300.192043 
L 98.909795 300.192043 
" clip-path="url(#p0c048cc7dc)" style="fill: none; stroke: #000000; stroke-linecap: square"/>
   </g>
   <g id="line2d_32">
    <defs>
     <path id="m9fc28ebd74" d="M 0 3 
C 0.795609 3 1.55874 2.683901 2.12132 2.12132 
C 2.683901 1.55874 3 0.795609 3 0 
C 3 -0.795609 2.683901 -1.55874 2.12132 -2.12132 
C 1.55874 -2.683901 0.795609 -3 0 -3 
C -0.795609 -3 -1.55874 -2.683901 -2.12132 -2.12132 
C -2.683901 -1.55874 -3 -0.795609 -3 0 
C -3 0.795609 -2.683901 1.55874 -2.12132 2.12132 
C -1.55874 2.683901 -0.795609 3 0 3 
z
" style="stroke: #000000"/>
    </defs>
    <g clip-path="url(#p0c048cc7dc)">
     <use xlink:href="#m9fc28ebd74" x="86.790384" y="672.501281" style="fill-opacity: 0; stroke: #000000"/>
     <use xlink:href="#m9fc28ebd74" x="86.790384" y="51.656699" style="fill-opacity: 0; stroke: #000000"/>
     <use xlink:href="#m9fc28ebd74" x="86.790384" y="240.938584" style="fill-opacity: 0; stroke: #000000"/>
     <use xlink:href="#m9fc28ebd74" x="86.790384" y="203.082207" style="fill-opacity: 0; stroke: #000000"/>
     <use xlink:href="#m9fc28ebd74" x="86.790384" y="254.704539" style="fill-opacity: 0; stroke: #000000"/>
     <use xlink:href="#m9fc28ebd74" x="86.790384" y="234.406503" style="fill-opacity: 0; stroke: #000000"/>
    </g>
   </g>
   <g id="line2d_33">
    <path d="M 159.506851 505.933222 
L 207.984495 505.933222 
L 207.984495 412.124583 
L 159.506851 412.124583 
L 159.506851 505.933222 
" clip-path="url(#p0c048cc7dc)" style="fill: none; stroke: #000000; stroke-linecap: square"/>
   </g>
   <g id="line2d_34">
    <path d="M 183.745673 505.933222 
L 183.745673 643.29779 
" clip-path="url(#p0c048cc7dc)" style="fill: none; stroke: #000000; stroke-linecap: square"/>
   </g>
   <g id="line2d_35">
    <path d="M 183.745673 412.124583 
L 183.745673 283.943428 
" clip-path="url(#p0c048cc7dc)" style="fill: none; stroke: #000000; stroke-linecap: square"/>
   </g>
   <g id="line2d_36">
    <path d="M 171.626262 643.29779 
L 195.865084 643.29779 
" clip-path="url(#p0c048cc7dc)" style="fill: none; stroke: #000000; stroke-linecap: square"/>
   </g>
   <g id="line2d_37">
    <path d="M 171.626262 283.943428 
L 195.865084 283.943428 
" clip-path="url(#p0c048cc7dc)" style="fill: none; stroke: #000000; stroke-linecap: square"/>
   </g>
   <g id="line2d_38">
    <g clip-path="url(#p0c048cc7dc)">
     <use xlink:href="#m9fc28ebd74" x="183.745673" y="659.963249" style="fill-opacity: 0; stroke: #000000"/>
     <use xlink:href="#m9fc28ebd74" x="183.745673" y="258.763529" style="fill-opacity: 0; stroke: #000000"/>
     <use xlink:href="#m9fc28ebd74" x="183.745673" y="203.082207" style="fill-opacity: 0; stroke: #000000"/>
    </g>
   </g>
   <g id="line2d_39">
    <path d="M 256.462139 447.427913 
L 304.939784 447.427913 
L 304.939784 354.507715 
L 256.462139 354.507715 
L 256.462139 447.427913 
" clip-path="url(#p0c048cc7dc)" style="fill: none; stroke: #000000; stroke-linecap: square"/>
   </g>
   <g id="line2d_40">
    <path d="M 280.700961 447.427913 
L 280.700961 557.555555 
" clip-path="url(#p0c048cc7dc)" style="fill: none; stroke: #000000; stroke-linecap: square"/>
   </g>
   <g id="line2d_41">
    <path d="M 280.700961 354.507715 
L 280.700961 287.531048 
" clip-path="url(#p0c048cc7dc)" style="fill: none; stroke: #000000; stroke-linecap: square"/>
   </g>
   <g id="line2d_42">
    <path d="M 268.58155 557.555555 
L 292.820372 557.555555 
" clip-path="url(#p0c048cc7dc)" style="fill: none; stroke: #000000; stroke-linecap: square"/>
   </g>
   <g id="line2d_43">
    <path d="M 268.58155 287.531048 
L 292.820372 287.531048 
" clip-path="url(#p0c048cc7dc)" style="fill: none; stroke: #000000; stroke-linecap: square"/>
   </g>
   <g id="line2d_44">
    <g clip-path="url(#p0c048cc7dc)">
     <use xlink:href="#m9fc28ebd74" x="280.700961" y="618.050328" style="fill-opacity: 0; stroke: #000000"/>
    </g>
   </g>
   <g id="line2d_45">
    <path d="M 353.417428 457.981812 
L 401.895072 457.981812 
L 401.895072 369.483864 
L 353.417428 369.483864 
L 353.417428 457.981812 
" clip-path="url(#p0c048cc7dc)" style="fill: none; stroke: #000000; stroke-linecap: square"/>
   </g>
   <g id="line2d_46">
    <path d="M 377.65625 457.981812 
L 377.65625 585.087465 
" clip-path="url(#p0c048cc7dc)" style="fill: none; stroke: #000000; stroke-linecap: square"/>
   </g>
   <g id="line2d_47">
    <path d="M 377.65625 369.483864 
L 377.65625 287.531048 
" clip-path="url(#p0c048cc7dc)" style="fill: none; stroke: #000000; stroke-linecap: square"/>
   </g>
   <g id="line2d_48">
    <path d="M 365.536839 585.087465 
L 389.775661 585.087465 
" clip-path="url(#p0c048cc7dc)" style="fill: none; stroke: #000000; stroke-linecap: square"/>
   </g>
   <g id="line2d_49">
    <path d="M 365.536839 287.531048 
L 389.775661 287.531048 
" clip-path="url(#p0c048cc7dc)" style="fill: none; stroke: #000000; stroke-linecap: square"/>
   </g>
   <g id="line2d_50"/>
   <g id="line2d_51">
    <path d="M 450.372716 483.219396 
L 498.850361 483.219396 
L 498.850361 397.788459 
L 450.372716 397.788459 
L 450.372716 483.219396 
" clip-path="url(#p0c048cc7dc)" style="fill: none; stroke: #000000; stroke-linecap: square"/>
   </g>
   <g id="line2d_52">
    <path d="M 474.611539 483.219396 
L 474.611539 560.308746 
" clip-path="url(#p0c048cc7dc)" style="fill: none; stroke: #000000; stroke-linecap: square"/>
   </g>
   <g id="line2d_53">
    <path d="M 474.611539 397.788459 
L 474.611539 298.011071 
" clip-path="url(#p0c048cc7dc)" style="fill: none; stroke: #000000; stroke-linecap: square"/>
   </g>
   <g id="line2d_54">
    <path d="M 462.492127 560.308746 
L 486.73095 560.308746 
" clip-path="url(#p0c048cc7dc)" style="fill: none; stroke: #000000; stroke-linecap: square"/>
   </g>
   <g id="line2d_55">
    <path d="M 462.492127 298.011071 
L 486.73095 298.011071 
" clip-path="url(#p0c048cc7dc)" style="fill: none; stroke: #000000; stroke-linecap: square"/>
   </g>
   <g id="line2d_56">
    <g clip-path="url(#p0c048cc7dc)">
     <use xlink:href="#m9fc28ebd74" x="474.611539" y="629.985658" style="fill-opacity: 0; stroke: #000000"/>
    </g>
   </g>
   <g id="line2d_57">
    <path d="M 547.328005 510.723213 
L 595.805649 510.723213 
L 595.805649 429.168902 
L 547.328005 429.168902 
L 547.328005 510.723213 
" clip-path="url(#p0c048cc7dc)" style="fill: none; stroke: #000000; stroke-linecap: square"/>
   </g>
   <g id="line2d_58">
    <path d="M 571.566827 510.723213 
L 571.566827 629.985658 
" clip-path="url(#p0c048cc7dc)" style="fill: none; stroke: #000000; stroke-linecap: square"/>
   </g>
   <g id="line2d_59">
    <path d="M 571.566827 429.168902 
L 571.566827 316.651338 
" clip-path="url(#p0c048cc7dc)" style="fill: none; stroke: #000000; stroke-linecap: square"/>
   </g>
   <g id="line2d_60">
    <path d="M 559.447416 629.985658 
L 583.686238 629.985658 
" clip-path="url(#p0c048cc7dc)" style="fill: none; stroke: #000000; stroke-linecap: square"/>
   </g>
   <g id="line2d_61">
    <path d="M 559.447416 316.651338 
L 583.686238 316.651338 
" clip-path="url(#p0c048cc7dc)" style="fill: none; stroke: #000000; stroke-linecap: square"/>
   </g>
   <g id="line2d_62">
    <g clip-path="url(#p0c048cc7dc)">
     <use xlink:href="#m9fc28ebd74" x="571.566827" y="666.612511" style="fill-opacity: 0; stroke: #000000"/>
     <use xlink:href="#m9fc28ebd74" x="571.566827" y="281.631523" style="fill-opacity: 0; stroke: #000000"/>
     <use xlink:href="#m9fc28ebd74" x="571.566827" y="303.290263" style="fill-opacity: 0; stroke: #000000"/>
     <use xlink:href="#m9fc28ebd74" x="571.566827" y="232.031201" style="fill-opacity: 0; stroke: #000000"/>
     <use xlink:href="#m9fc28ebd74" x="571.566827" y="301.508787" style="fill-opacity: 0; stroke: #000000"/>
     <use xlink:href="#m9fc28ebd74" x="571.566827" y="299.179164" style="fill-opacity: 0; stroke: #000000"/>
    </g>
   </g>
   <g id="line2d_63">
    <path d="M 644.283294 511.200807 
L 692.760938 511.200807 
L 692.760938 431.836289 
L 644.283294 431.836289 
L 644.283294 511.200807 
" clip-path="url(#p0c048cc7dc)" style="fill: none; stroke: #000000; stroke-linecap: square"/>
   </g>
   <g id="line2d_64">
    <path d="M 668.522116 511.200807 
L 668.522116 598.302782 
" clip-path="url(#p0c048cc7dc)" style="fill: none; stroke: #000000; stroke-linecap: square"/>
   </g>
   <g id="line2d_65">
    <path d="M 668.522116 431.836289 
L 668.522116 349.099661 
" clip-path="url(#p0c048cc7dc)" style="fill: none; stroke: #000000; stroke-linecap: square"/>
   </g>
   <g id="line2d_66">
    <path d="M 656.402705 598.302782 
L 680.641527 598.302782 
" clip-path="url(#p0c048cc7dc)" style="fill: none; stroke: #000000; stroke-linecap: square"/>
   </g>
   <g id="line2d_67">
    <path d="M 656.402705 349.099661 
L 680.641527 349.099661 
" clip-path="url(#p0c048cc7dc)" style="fill: none; stroke: #000000; stroke-linecap: square"/>
   </g>
   <g id="line2d_68"/>
   <g id="line2d_69">
    <path d="M 62.551562 473.616803 
L 111.029206 473.616803 
" clip-path="url(#p0c048cc7dc)" style="fill: none; stroke: #ff7f0e; stroke-linecap: square"/>
   </g>
   <g id="line2d_70">
    <path d="M 159.506851 464.174126 
L 207.984495 464.174126 
" clip-path="url(#p0c048cc7dc)" style="fill: none; stroke: #ff7f0e; stroke-linecap: square"/>
   </g>
   <g id="line2d_71">
    <path d="M 256.462139 400.77662 
L 304.939784 400.77662 
" clip-path="url(#p0c048cc7dc)" style="fill: none; stroke: #ff7f0e; stroke-linecap: square"/>
   </g>
   <g id="line2d_72">
    <path d="M 353.417428 412.554159 
L 401.895072 412.554159 
" clip-path="url(#p0c048cc7dc)" style="fill: none; stroke: #ff7f0e; stroke-linecap: square"/>
   </g>
   <g id="line2d_73">
    <path d="M 450.372716 452.934295 
L 498.850361 452.934295 
" clip-path="url(#p0c048cc7dc)" style="fill: none; stroke: #ff7f0e; stroke-linecap: square"/>
   </g>
   <g id="line2d_74">
    <path d="M 547.328005 470.328815 
L 595.805649 470.328815 
" clip-path="url(#p0c048cc7dc)" style="fill: none; stroke: #ff7f0e; stroke-linecap: square"/>
   </g>
   <g id="line2d_75">
    <path d="M 644.283294 471.231544 
L 692.760938 471.231544 
" clip-path="url(#p0c048cc7dc)" style="fill: none; stroke: #ff7f0e; stroke-linecap: square"/>
   </g>
   <g id="patch_3">
    <path d="M 38.31274 703.54351 
L 38.31274 20.61447 
" style="fill: none; stroke: #000000; stroke-width: 0.8; stroke-linejoin: miter; stroke-linecap: square"/>
   </g>
   <g id="patch_4">
    <path d="M 716.99976 703.54351 
L 716.99976 20.61447 
" style="fill: none; stroke: #000000; stroke-width: 0.8; stroke-linejoin: miter; stroke-linecap: square"/>
   </g>
   <g id="patch_5">
    <path d="M 38.31274 703.54351 
L 716.99976 703.54351 
" style="fill: none; stroke: #000000; stroke-width: 0.8; stroke-linejoin: miter; stroke-linecap: square"/>
   </g>
   <g id="patch_6">
    <path d="M 38.31274 20.61447 
L 716.99976 20.61447 
" style="fill: none; stroke: #000000; stroke-width: 0.8; stroke-linejoin: miter; stroke-linecap: square"/>
   </g>
  </g>
  <g id="text_14">
   <!-- Rent cost by months in Erebuni -->
   <g transform="translate(265.948125 12.118365)scale(0.12 -0.12)">
    <defs>
     <path id="DejaVuSans-52" d="M 2841 2188 
Q 3044 2119 3236 1894 
Q 3428 1669 3622 1275 
L 4263 0 
L 3584 0 
L 2988 1197 
Q 2756 1666 2539 1819 
Q 2322 1972 1947 1972 
L 1259 1972 
L 1259 0 
L 628 0 
L 628 4666 
L 2053 4666 
Q 2853 4666 3247 4331 
Q 3641 3997 3641 3322 
Q 3641 2881 3436 2590 
Q 3231 2300 2841 2188 
z
M 1259 4147 
L 1259 2491 
L 2053 2491 
Q 2509 2491 2742 2702 
Q 2975 2913 2975 3322 
Q 2975 3731 2742 3939 
Q 2509 4147 2053 4147 
L 1259 4147 
z
" transform="scale(0.015625)"/>
     <path id="DejaVuSans-20" transform="scale(0.015625)"/>
     <path id="DejaVuSans-68" d="M 3513 2113 
L 3513 0 
L 2938 0 
L 2938 2094 
Q 2938 2591 2744 2837 
Q 2550 3084 2163 3084 
Q 1697 3084 1428 2787 
Q 1159 2491 1159 1978 
L 1159 0 
L 581 0 
L 581 4863 
L 1159 4863 
L 1159 2956 
Q 1366 3272 1645 3428 
Q 1925 3584 2291 3584 
Q 2894 3584 3203 3211 
Q 3513 2838 3513 2113 
z
" transform="scale(0.015625)"/>
     <path id="DejaVuSans-45" d="M 628 4666 
L 3578 4666 
L 3578 4134 
L 1259 4134 
L 1259 2753 
L 3481 2753 
L 3481 2222 
L 1259 2222 
L 1259 531 
L 3634 531 
L 3634 0 
L 628 0 
L 628 4666 
z
" transform="scale(0.015625)"/>
    </defs>
    <use xlink:href="#DejaVuSans-52"/>
    <use xlink:href="#DejaVuSans-65" x="64.982422"/>
    <use xlink:href="#DejaVuSans-6e" x="126.505859"/>
    <use xlink:href="#DejaVuSans-74" x="189.884766"/>
    <use xlink:href="#DejaVuSans-20" x="229.09375"/>
    <use xlink:href="#DejaVuSans-63" x="260.880859"/>
    <use xlink:href="#DejaVuSans-6f" x="315.861328"/>
    <use xlink:href="#DejaVuSans-73" x="377.042969"/>
    <use xlink:href="#DejaVuSans-74" x="429.142578"/>
    <use xlink:href="#DejaVuSans-20" x="468.351562"/>
    <use xlink:href="#DejaVuSans-62" x="500.138672"/>
    <use xlink:href="#DejaVuSans-79" x="563.615234"/>
    <use xlink:href="#DejaVuSans-20" x="622.794922"/>
    <use xlink:href="#DejaVuSans-6d" x="654.582031"/>
    <use xlink:href="#DejaVuSans-6f" x="751.994141"/>
    <use xlink:href="#DejaVuSans-6e" x="813.175781"/>
    <use xlink:href="#DejaVuSans-74" x="876.554688"/>
    <use xlink:href="#DejaVuSans-68" x="915.763672"/>
    <use xlink:href="#DejaVuSans-73" x="979.142578"/>
    <use xlink:href="#DejaVuSans-20" x="1031.242188"/>
    <use xlink:href="#DejaVuSans-69" x="1063.029297"/>
    <use xlink:href="#DejaVuSans-6e" x="1090.8125"/>
    <use xlink:href="#DejaVuSans-20" x="1154.191406"/>
    <use xlink:href="#DejaVuSans-45" x="1185.978516"/>
    <use xlink:href="#DejaVuSans-72" x="1249.162109"/>
    <use xlink:href="#DejaVuSans-65" x="1288.025391"/>
    <use xlink:href="#DejaVuSans-62" x="1349.548828"/>
    <use xlink:href="#DejaVuSans-75" x="1413.025391"/>
    <use xlink:href="#DejaVuSans-6e" x="1476.404297"/>
    <use xlink:href="#DejaVuSans-69" x="1539.783203"/>
   </g>
  </g>
 </g>
 <defs>
  <clipPath id="p0c048cc7dc">
   <rect x="38.31274" y="20.61447" width="678.68702" height="682.92904"/>
  </clipPath>
 </defs>
</svg>
