<?xml version="1.0" encoding="utf-8" standalone="no"?>
<!DOCTYPE svg PUBLIC "-//W3C//DTD SVG 1.1//EN"
  "http://www.w3.org/Graphics/SVG/1.1/DTD/svg11.dtd">
<svg xmlns:xlink="http://www.w3.org/1999/xlink" width="720pt" height="720pt" viewBox="0 0 720 720" xmlns="http://www.w3.org/2000/svg" version="1.1">
 <metadata>
  <rdf:RDF xmlns:dc="http://purl.org/dc/elements/1.1/" xmlns:cc="http://creativecommons.org/ns#" xmlns:rdf="http://www.w3.org/1999/02/22-rdf-syntax-ns#">
   <cc:Work>
    <dc:type rdf:resource="http://purl.org/dc/dcmitype/StillImage"/>
    <dc:date>2024-08-12T00:47:55.153880</dc:date>
    <dc:format>image/svg+xml</dc:format>
    <dc:creator>
     <cc:Agent>
      <dc:title>Matplotlib v3.5.1, https://matplotlib.org/</dc:title>
     </cc:Agent>
    </dc:creator>
   </cc:Work>
  </rdf:RDF>
 </metadata>
 <defs>
  <style type="text/css">*{stroke-linejoin: round; stroke-linecap: butt}</style>
 </defs>
 <g id="figure_1">
  <g id="patch_1">
   <path d="M 0 720 
L 720 720 
L 720 0 
L 0 0 
z
" style="fill: #87cefa"/>
  </g>
  <g id="axes_1">
   <g id="patch_2">
    <path d="M 38.31274 703.54351 
L 716.99976 703.54351 
L 716.99976 20.61447 
L 38.31274 20.61447 
z
" style="fill: #ffffff"/>
   </g>
   <g id="matplotlib.axis_1">
    <g id="xtick_1">
     <g id="line2d_1">
      <path d="M 80.730679 703.54351 
L 80.730679 20.61447 
" clip-path="url(#p275e15dbf9)" style="fill: none; stroke: #b0b0b0; stroke-width: 0.8; stroke-linecap: square"/>
     </g>
     <g id="line2d_2"/>
     <g id="text_1">
      <!-- april_2023 -->
      <g transform="translate(54.433804 714.641948)scale(0.1 -0.1)">
       <defs>
        <path id="DejaVuSans-61" d="M 2194 1759 
Q 1497 1759 1228 1600 
Q 959 1441 959 1056 
Q 959 750 1161 570 
Q 1363 391 1709 391 
Q 2188 391 2477 730 
Q 2766 1069 2766 1631 
L 2766 1759 
L 2194 1759 
z
M 3341 1997 
L 3341 0 
L 2766 0 
L 2766 531 
Q 2569 213 2275 61 
Q 1981 -91 1556 -91 
Q 1019 -91 701 211 
Q 384 513 384 1019 
Q 384 1609 779 1909 
Q 1175 2209 1959 2209 
L 2766 2209 
L 2766 2266 
Q 2766 2663 2505 2880 
Q 2244 3097 1772 3097 
Q 1472 3097 1187 3025 
Q 903 2953 641 2809 
L 641 3341 
Q 956 3463 1253 3523 
Q 1550 3584 1831 3584 
Q 2591 3584 2966 3190 
Q 3341 2797 3341 1997 
z
" transform="scale(0.015625)"/>
        <path id="DejaVuSans-70" d="M 1159 525 
L 1159 -1331 
L 581 -1331 
L 581 3500 
L 1159 3500 
L 1159 2969 
Q 1341 3281 1617 3432 
Q 1894 3584 2278 3584 
Q 2916 3584 3314 3078 
Q 3713 2572 3713 1747 
Q 3713 922 3314 415 
Q 2916 -91 2278 -91 
Q 1894 -91 1617 61 
Q 1341 213 1159 525 
z
M 3116 1747 
Q 3116 2381 2855 2742 
Q 2594 3103 2138 3103 
Q 1681 3103 1420 2742 
Q 1159 2381 1159 1747 
Q 1159 1113 1420 752 
Q 1681 391 2138 391 
Q 2594 391 2855 752 
Q 3116 1113 3116 1747 
z
" transform="scale(0.015625)"/>
        <path id="DejaVuSans-72" d="M 2631 2963 
Q 2534 3019 2420 3045 
Q 2306 3072 2169 3072 
Q 1681 3072 1420 2755 
Q 1159 2438 1159 1844 
L 1159 0 
L 581 0 
L 581 3500 
L 1159 3500 
L 1159 2956 
Q 1341 3275 1631 3429 
Q 1922 3584 2338 3584 
Q 2397 3584 2469 3576 
Q 2541 3569 2628 3553 
L 2631 2963 
z
" transform="scale(0.015625)"/>
        <path id="DejaVuSans-69" d="M 603 3500 
L 1178 3500 
L 1178 0 
L 603 0 
L 603 3500 
z
M 603 4863 
L 1178 4863 
L 1178 4134 
L 603 4134 
L 603 4863 
z
" transform="scale(0.015625)"/>
        <path id="DejaVuSans-6c" d="M 603 4863 
L 1178 4863 
L 1178 0 
L 603 0 
L 603 4863 
z
" transform="scale(0.015625)"/>
        <path id="DejaVuSans-5f" d="M 3263 -1063 
L 3263 -1509 
L -63 -1509 
L -63 -1063 
L 3263 -1063 
z
" transform="scale(0.015625)"/>
        <path id="DejaVuSans-32" d="M 1228 531 
L 3431 531 
L 3431 0 
L 469 0 
L 469 531 
Q 828 903 1448 1529 
Q 2069 2156 2228 2338 
Q 2531 2678 2651 2914 
Q 2772 3150 2772 3378 
Q 2772 3750 2511 3984 
Q 2250 4219 1831 4219 
Q 1534 4219 1204 4116 
Q 875 4013 500 3803 
L 500 4441 
Q 881 4594 1212 4672 
Q 1544 4750 1819 4750 
Q 2544 4750 2975 4387 
Q 3406 4025 3406 3419 
Q 3406 3131 3298 2873 
Q 3191 2616 2906 2266 
Q 2828 2175 2409 1742 
Q 1991 1309 1228 531 
z
" transform="scale(0.015625)"/>
        <path id="DejaVuSans-30" d="M 2034 4250 
Q 1547 4250 1301 3770 
Q 1056 3291 1056 2328 
Q 1056 1369 1301 889 
Q 1547 409 2034 409 
Q 2525 409 2770 889 
Q 3016 1369 3016 2328 
Q 3016 3291 2770 3770 
Q 2525 4250 2034 4250 
z
M 2034 4750 
Q 2819 4750 3233 4129 
Q 3647 3509 3647 2328 
Q 3647 1150 3233 529 
Q 2819 -91 2034 -91 
Q 1250 -91 836 529 
Q 422 1150 422 2328 
Q 422 3509 836 4129 
Q 1250 4750 2034 4750 
z
" transform="scale(0.015625)"/>
        <path id="DejaVuSans-33" d="M 2597 2516 
Q 3050 2419 3304 2112 
Q 3559 1806 3559 1356 
Q 3559 666 3084 287 
Q 2609 -91 1734 -91 
Q 1441 -91 1130 -33 
Q 819 25 488 141 
L 488 750 
Q 750 597 1062 519 
Q 1375 441 1716 441 
Q 2309 441 2620 675 
Q 2931 909 2931 1356 
Q 2931 1769 2642 2001 
Q 2353 2234 1838 2234 
L 1294 2234 
L 1294 2753 
L 1863 2753 
Q 2328 2753 2575 2939 
Q 2822 3125 2822 3475 
Q 2822 3834 2567 4026 
Q 2313 4219 1838 4219 
Q 1578 4219 1281 4162 
Q 984 4106 628 3988 
L 628 4550 
Q 988 4650 1302 4700 
Q 1616 4750 1894 4750 
Q 2613 4750 3031 4423 
Q 3450 4097 3450 3541 
Q 3450 3153 3228 2886 
Q 3006 2619 2597 2516 
z
" transform="scale(0.015625)"/>
       </defs>
       <use xlink:href="#DejaVuSans-61"/>
       <use xlink:href="#DejaVuSans-70" x="61.279297"/>
       <use xlink:href="#DejaVuSans-72" x="124.755859"/>
       <use xlink:href="#DejaVuSans-69" x="165.869141"/>
       <use xlink:href="#DejaVuSans-6c" x="193.652344"/>
       <use xlink:href="#DejaVuSans-5f" x="221.435547"/>
       <use xlink:href="#DejaVuSans-32" x="271.435547"/>
       <use xlink:href="#DejaVuSans-30" x="335.058594"/>
       <use xlink:href="#DejaVuSans-32" x="398.681641"/>
       <use xlink:href="#DejaVuSans-33" x="462.304688"/>
      </g>
     </g>
    </g>
    <g id="xtick_2">
     <g id="line2d_3">
      <path d="M 165.566556 703.54351 
L 165.566556 20.61447 
" clip-path="url(#p275e15dbf9)" style="fill: none; stroke: #b0b0b0; stroke-width: 0.8; stroke-linecap: square"/>
     </g>
     <g id="line2d_4"/>
     <g id="text_2">
      <!-- september_2023 -->
      <g transform="translate(123.272806 714.641948)scale(0.1 -0.1)">
       <defs>
        <path id="DejaVuSans-73" d="M 2834 3397 
L 2834 2853 
Q 2591 2978 2328 3040 
Q 2066 3103 1784 3103 
Q 1356 3103 1142 2972 
Q 928 2841 928 2578 
Q 928 2378 1081 2264 
Q 1234 2150 1697 2047 
L 1894 2003 
Q 2506 1872 2764 1633 
Q 3022 1394 3022 966 
Q 3022 478 2636 193 
Q 2250 -91 1575 -91 
Q 1294 -91 989 -36 
Q 684 19 347 128 
L 347 722 
Q 666 556 975 473 
Q 1284 391 1588 391 
Q 1994 391 2212 530 
Q 2431 669 2431 922 
Q 2431 1156 2273 1281 
Q 2116 1406 1581 1522 
L 1381 1569 
Q 847 1681 609 1914 
Q 372 2147 372 2553 
Q 372 3047 722 3315 
Q 1072 3584 1716 3584 
Q 2034 3584 2315 3537 
Q 2597 3491 2834 3397 
z
" transform="scale(0.015625)"/>
        <path id="DejaVuSans-65" d="M 3597 1894 
L 3597 1613 
L 953 1613 
Q 991 1019 1311 708 
Q 1631 397 2203 397 
Q 2534 397 2845 478 
Q 3156 559 3463 722 
L 3463 178 
Q 3153 47 2828 -22 
Q 2503 -91 2169 -91 
Q 1331 -91 842 396 
Q 353 884 353 1716 
Q 353 2575 817 3079 
Q 1281 3584 2069 3584 
Q 2775 3584 3186 3129 
Q 3597 2675 3597 1894 
z
M 3022 2063 
Q 3016 2534 2758 2815 
Q 2500 3097 2075 3097 
Q 1594 3097 1305 2825 
Q 1016 2553 972 2059 
L 3022 2063 
z
" transform="scale(0.015625)"/>
        <path id="DejaVuSans-74" d="M 1172 4494 
L 1172 3500 
L 2356 3500 
L 2356 3053 
L 1172 3053 
L 1172 1153 
Q 1172 725 1289 603 
Q 1406 481 1766 481 
L 2356 481 
L 2356 0 
L 1766 0 
Q 1100 0 847 248 
Q 594 497 594 1153 
L 594 3053 
L 172 3053 
L 172 3500 
L 594 3500 
L 594 4494 
L 1172 4494 
z
" transform="scale(0.015625)"/>
        <path id="DejaVuSans-6d" d="M 3328 2828 
Q 3544 3216 3844 3400 
Q 4144 3584 4550 3584 
Q 5097 3584 5394 3201 
Q 5691 2819 5691 2113 
L 5691 0 
L 5113 0 
L 5113 2094 
Q 5113 2597 4934 2840 
Q 4756 3084 4391 3084 
Q 3944 3084 3684 2787 
Q 3425 2491 3425 1978 
L 3425 0 
L 2847 0 
L 2847 2094 
Q 2847 2600 2669 2842 
Q 2491 3084 2119 3084 
Q 1678 3084 1418 2786 
Q 1159 2488 1159 1978 
L 1159 0 
L 581 0 
L 581 3500 
L 1159 3500 
L 1159 2956 
Q 1356 3278 1631 3431 
Q 1906 3584 2284 3584 
Q 2666 3584 2933 3390 
Q 3200 3197 3328 2828 
z
" transform="scale(0.015625)"/>
        <path id="DejaVuSans-62" d="M 3116 1747 
Q 3116 2381 2855 2742 
Q 2594 3103 2138 3103 
Q 1681 3103 1420 2742 
Q 1159 2381 1159 1747 
Q 1159 1113 1420 752 
Q 1681 391 2138 391 
Q 2594 391 2855 752 
Q 3116 1113 3116 1747 
z
M 1159 2969 
Q 1341 3281 1617 3432 
Q 1894 3584 2278 3584 
Q 2916 3584 3314 3078 
Q 3713 2572 3713 1747 
Q 3713 922 3314 415 
Q 2916 -91 2278 -91 
Q 1894 -91 1617 61 
Q 1341 213 1159 525 
L 1159 0 
L 581 0 
L 581 4863 
L 1159 4863 
L 1159 2969 
z
" transform="scale(0.015625)"/>
       </defs>
       <use xlink:href="#DejaVuSans-73"/>
       <use xlink:href="#DejaVuSans-65" x="52.099609"/>
       <use xlink:href="#DejaVuSans-70" x="113.623047"/>
       <use xlink:href="#DejaVuSans-74" x="177.099609"/>
       <use xlink:href="#DejaVuSans-65" x="216.308594"/>
       <use xlink:href="#DejaVuSans-6d" x="277.832031"/>
       <use xlink:href="#DejaVuSans-62" x="375.244141"/>
       <use xlink:href="#DejaVuSans-65" x="438.720703"/>
       <use xlink:href="#DejaVuSans-72" x="500.244141"/>
       <use xlink:href="#DejaVuSans-5f" x="541.357422"/>
       <use xlink:href="#DejaVuSans-32" x="591.357422"/>
       <use xlink:href="#DejaVuSans-30" x="654.980469"/>
       <use xlink:href="#DejaVuSans-32" x="718.603516"/>
       <use xlink:href="#DejaVuSans-33" x="782.226562"/>
      </g>
     </g>
    </g>
    <g id="xtick_3">
     <g id="line2d_5">
      <path d="M 250.402434 703.54351 
L 250.402434 20.61447 
" clip-path="url(#p275e15dbf9)" style="fill: none; stroke: #b0b0b0; stroke-width: 0.8; stroke-linecap: square"/>
     </g>
     <g id="line2d_6"/>
     <g id="text_3">
      <!-- october_2023 -->
      <g transform="translate(216.043059 714.641948)scale(0.1 -0.1)">
       <defs>
        <path id="DejaVuSans-6f" d="M 1959 3097 
Q 1497 3097 1228 2736 
Q 959 2375 959 1747 
Q 959 1119 1226 758 
Q 1494 397 1959 397 
Q 2419 397 2687 759 
Q 2956 1122 2956 1747 
Q 2956 2369 2687 2733 
Q 2419 3097 1959 3097 
z
M 1959 3584 
Q 2709 3584 3137 3096 
Q 3566 2609 3566 1747 
Q 3566 888 3137 398 
Q 2709 -91 1959 -91 
Q 1206 -91 779 398 
Q 353 888 353 1747 
Q 353 2609 779 3096 
Q 1206 3584 1959 3584 
z
" transform="scale(0.015625)"/>
        <path id="DejaVuSans-63" d="M 3122 3366 
L 3122 2828 
Q 2878 2963 2633 3030 
Q 2388 3097 2138 3097 
Q 1578 3097 1268 2742 
Q 959 2388 959 1747 
Q 959 1106 1268 751 
Q 1578 397 2138 397 
Q 2388 397 2633 464 
Q 2878 531 3122 666 
L 3122 134 
Q 2881 22 2623 -34 
Q 2366 -91 2075 -91 
Q 1284 -91 818 406 
Q 353 903 353 1747 
Q 353 2603 823 3093 
Q 1294 3584 2113 3584 
Q 2378 3584 2631 3529 
Q 2884 3475 3122 3366 
z
" transform="scale(0.015625)"/>
       </defs>
       <use xlink:href="#DejaVuSans-6f"/>
       <use xlink:href="#DejaVuSans-63" x="61.181641"/>
       <use xlink:href="#DejaVuSans-74" x="116.162109"/>
       <use xlink:href="#DejaVuSans-6f" x="155.371094"/>
       <use xlink:href="#DejaVuSans-62" x="216.552734"/>
       <use xlink:href="#DejaVuSans-65" x="280.029297"/>
       <use xlink:href="#DejaVuSans-72" x="341.552734"/>
       <use xlink:href="#DejaVuSans-5f" x="382.666016"/>
       <use xlink:href="#DejaVuSans-32" x="432.666016"/>
       <use xlink:href="#DejaVuSans-30" x="496.289062"/>
       <use xlink:href="#DejaVuSans-32" x="559.912109"/>
       <use xlink:href="#DejaVuSans-33" x="623.535156"/>
      </g>
     </g>
    </g>
    <g id="xtick_4">
     <g id="line2d_7">
      <path d="M 335.238311 703.54351 
L 335.238311 20.61447 
" clip-path="url(#p275e15dbf9)" style="fill: none; stroke: #b0b0b0; stroke-width: 0.8; stroke-linecap: square"/>
     </g>
     <g id="line2d_8"/>
     <g id="text_4">
      <!-- november_2023 -->
      <g transform="translate(294.572686 714.641948)scale(0.1 -0.1)">
       <defs>
        <path id="DejaVuSans-6e" d="M 3513 2113 
L 3513 0 
L 2938 0 
L 2938 2094 
Q 2938 2591 2744 2837 
Q 2550 3084 2163 3084 
Q 1697 3084 1428 2787 
Q 1159 2491 1159 1978 
L 1159 0 
L 581 0 
L 581 3500 
L 1159 3500 
L 1159 2956 
Q 1366 3272 1645 3428 
Q 1925 3584 2291 3584 
Q 2894 3584 3203 3211 
Q 3513 2838 3513 2113 
z
" transform="scale(0.015625)"/>
        <path id="DejaVuSans-76" d="M 191 3500 
L 800 3500 
L 1894 563 
L 2988 3500 
L 3597 3500 
L 2284 0 
L 1503 0 
L 191 3500 
z
" transform="scale(0.015625)"/>
       </defs>
       <use xlink:href="#DejaVuSans-6e"/>
       <use xlink:href="#DejaVuSans-6f" x="63.378906"/>
       <use xlink:href="#DejaVuSans-76" x="124.560547"/>
       <use xlink:href="#DejaVuSans-65" x="183.740234"/>
       <use xlink:href="#DejaVuSans-6d" x="245.263672"/>
       <use xlink:href="#DejaVuSans-62" x="342.675781"/>
       <use xlink:href="#DejaVuSans-65" x="406.152344"/>
       <use xlink:href="#DejaVuSans-72" x="467.675781"/>
       <use xlink:href="#DejaVuSans-5f" x="508.789062"/>
       <use xlink:href="#DejaVuSans-32" x="558.789062"/>
       <use xlink:href="#DejaVuSans-30" x="622.412109"/>
       <use xlink:href="#DejaVuSans-32" x="686.035156"/>
       <use xlink:href="#DejaVuSans-33" x="749.658203"/>
      </g>
     </g>
    </g>
    <g id="xtick_5">
     <g id="line2d_9">
      <path d="M 420.074189 703.54351 
L 420.074189 20.61447 
" clip-path="url(#p275e15dbf9)" style="fill: none; stroke: #b0b0b0; stroke-width: 0.8; stroke-linecap: square"/>
     </g>
     <g id="line2d_10"/>
     <g id="text_5">
      <!-- december_2023 -->
      <g transform="translate(379.596064 714.641948)scale(0.1 -0.1)">
       <defs>
        <path id="DejaVuSans-64" d="M 2906 2969 
L 2906 4863 
L 3481 4863 
L 3481 0 
L 2906 0 
L 2906 525 
Q 2725 213 2448 61 
Q 2172 -91 1784 -91 
Q 1150 -91 751 415 
Q 353 922 353 1747 
Q 353 2572 751 3078 
Q 1150 3584 1784 3584 
Q 2172 3584 2448 3432 
Q 2725 3281 2906 2969 
z
M 947 1747 
Q 947 1113 1208 752 
Q 1469 391 1925 391 
Q 2381 391 2643 752 
Q 2906 1113 2906 1747 
Q 2906 2381 2643 2742 
Q 2381 3103 1925 3103 
Q 1469 3103 1208 2742 
Q 947 2381 947 1747 
z
" transform="scale(0.015625)"/>
       </defs>
       <use xlink:href="#DejaVuSans-64"/>
       <use xlink:href="#DejaVuSans-65" x="63.476562"/>
       <use xlink:href="#DejaVuSans-63" x="125"/>
       <use xlink:href="#DejaVuSans-65" x="179.980469"/>
       <use xlink:href="#DejaVuSans-6d" x="241.503906"/>
       <use xlink:href="#DejaVuSans-62" x="338.916016"/>
       <use xlink:href="#DejaVuSans-65" x="402.392578"/>
       <use xlink:href="#DejaVuSans-72" x="463.916016"/>
       <use xlink:href="#DejaVuSans-5f" x="505.029297"/>
       <use xlink:href="#DejaVuSans-32" x="555.029297"/>
       <use xlink:href="#DejaVuSans-30" x="618.652344"/>
       <use xlink:href="#DejaVuSans-32" x="682.275391"/>
       <use xlink:href="#DejaVuSans-33" x="745.898438"/>
      </g>
     </g>
    </g>
    <g id="xtick_6">
     <g id="line2d_11">
      <path d="M 504.910066 703.54351 
L 504.910066 20.61447 
" clip-path="url(#p275e15dbf9)" style="fill: none; stroke: #b0b0b0; stroke-width: 0.8; stroke-linecap: square"/>
     </g>
     <g id="line2d_12"/>
     <g id="text_6">
      <!-- january_2024 -->
      <g transform="translate(470.815535 714.641948)scale(0.1 -0.1)">
       <defs>
        <path id="DejaVuSans-6a" d="M 603 3500 
L 1178 3500 
L 1178 -63 
Q 1178 -731 923 -1031 
Q 669 -1331 103 -1331 
L -116 -1331 
L -116 -844 
L 38 -844 
Q 366 -844 484 -692 
Q 603 -541 603 -63 
L 603 3500 
z
M 603 4863 
L 1178 4863 
L 1178 4134 
L 603 4134 
L 603 4863 
z
" transform="scale(0.015625)"/>
        <path id="DejaVuSans-75" d="M 544 1381 
L 544 3500 
L 1119 3500 
L 1119 1403 
Q 1119 906 1312 657 
Q 1506 409 1894 409 
Q 2359 409 2629 706 
Q 2900 1003 2900 1516 
L 2900 3500 
L 3475 3500 
L 3475 0 
L 2900 0 
L 2900 538 
Q 2691 219 2414 64 
Q 2138 -91 1772 -91 
Q 1169 -91 856 284 
Q 544 659 544 1381 
z
M 1991 3584 
L 1991 3584 
z
" transform="scale(0.015625)"/>
        <path id="DejaVuSans-79" d="M 2059 -325 
Q 1816 -950 1584 -1140 
Q 1353 -1331 966 -1331 
L 506 -1331 
L 506 -850 
L 844 -850 
Q 1081 -850 1212 -737 
Q 1344 -625 1503 -206 
L 1606 56 
L 191 3500 
L 800 3500 
L 1894 763 
L 2988 3500 
L 3597 3500 
L 2059 -325 
z
" transform="scale(0.015625)"/>
        <path id="DejaVuSans-34" d="M 2419 4116 
L 825 1625 
L 2419 1625 
L 2419 4116 
z
M 2253 4666 
L 3047 4666 
L 3047 1625 
L 3713 1625 
L 3713 1100 
L 3047 1100 
L 3047 0 
L 2419 0 
L 2419 1100 
L 313 1100 
L 313 1709 
L 2253 4666 
z
" transform="scale(0.015625)"/>
       </defs>
       <use xlink:href="#DejaVuSans-6a"/>
       <use xlink:href="#DejaVuSans-61" x="27.783203"/>
       <use xlink:href="#DejaVuSans-6e" x="89.0625"/>
       <use xlink:href="#DejaVuSans-75" x="152.441406"/>
       <use xlink:href="#DejaVuSans-61" x="215.820312"/>
       <use xlink:href="#DejaVuSans-72" x="277.099609"/>
       <use xlink:href="#DejaVuSans-79" x="318.212891"/>
       <use xlink:href="#DejaVuSans-5f" x="377.392578"/>
       <use xlink:href="#DejaVuSans-32" x="427.392578"/>
       <use xlink:href="#DejaVuSans-30" x="491.015625"/>
       <use xlink:href="#DejaVuSans-32" x="554.638672"/>
       <use xlink:href="#DejaVuSans-34" x="618.261719"/>
      </g>
     </g>
    </g>
    <g id="xtick_7">
     <g id="line2d_13">
      <path d="M 589.745944 703.54351 
L 589.745944 20.61447 
" clip-path="url(#p275e15dbf9)" style="fill: none; stroke: #b0b0b0; stroke-width: 0.8; stroke-linecap: square"/>
     </g>
     <g id="line2d_14"/>
     <g id="text_7">
      <!-- february_2024 -->
      <g transform="translate(553.206881 714.641948)scale(0.1 -0.1)">
       <defs>
        <path id="DejaVuSans-66" d="M 2375 4863 
L 2375 4384 
L 1825 4384 
Q 1516 4384 1395 4259 
Q 1275 4134 1275 3809 
L 1275 3500 
L 2222 3500 
L 2222 3053 
L 1275 3053 
L 1275 0 
L 697 0 
L 697 3053 
L 147 3053 
L 147 3500 
L 697 3500 
L 697 3744 
Q 697 4328 969 4595 
Q 1241 4863 1831 4863 
L 2375 4863 
z
" transform="scale(0.015625)"/>
       </defs>
       <use xlink:href="#DejaVuSans-66"/>
       <use xlink:href="#DejaVuSans-65" x="35.205078"/>
       <use xlink:href="#DejaVuSans-62" x="96.728516"/>
       <use xlink:href="#DejaVuSans-72" x="160.205078"/>
       <use xlink:href="#DejaVuSans-75" x="201.318359"/>
       <use xlink:href="#DejaVuSans-61" x="264.697266"/>
       <use xlink:href="#DejaVuSans-72" x="325.976562"/>
       <use xlink:href="#DejaVuSans-79" x="367.089844"/>
       <use xlink:href="#DejaVuSans-5f" x="426.269531"/>
       <use xlink:href="#DejaVuSans-32" x="476.269531"/>
       <use xlink:href="#DejaVuSans-30" x="539.892578"/>
       <use xlink:href="#DejaVuSans-32" x="603.515625"/>
       <use xlink:href="#DejaVuSans-34" x="667.138672"/>
      </g>
     </g>
    </g>
    <g id="xtick_8">
     <g id="line2d_15">
      <path d="M 674.581821 703.54351 
L 674.581821 20.61447 
" clip-path="url(#p275e15dbf9)" style="fill: none; stroke: #b0b0b0; stroke-width: 0.8; stroke-linecap: square"/>
     </g>
     <g id="line2d_16"/>
     <g id="text_8">
      <!-- august_2024 -->
      <g transform="translate(642.216196 714.465385)scale(0.1 -0.1)">
       <defs>
        <path id="DejaVuSans-67" d="M 2906 1791 
Q 2906 2416 2648 2759 
Q 2391 3103 1925 3103 
Q 1463 3103 1205 2759 
Q 947 2416 947 1791 
Q 947 1169 1205 825 
Q 1463 481 1925 481 
Q 2391 481 2648 825 
Q 2906 1169 2906 1791 
z
M 3481 434 
Q 3481 -459 3084 -895 
Q 2688 -1331 1869 -1331 
Q 1566 -1331 1297 -1286 
Q 1028 -1241 775 -1147 
L 775 -588 
Q 1028 -725 1275 -790 
Q 1522 -856 1778 -856 
Q 2344 -856 2625 -561 
Q 2906 -266 2906 331 
L 2906 616 
Q 2728 306 2450 153 
Q 2172 0 1784 0 
Q 1141 0 747 490 
Q 353 981 353 1791 
Q 353 2603 747 3093 
Q 1141 3584 1784 3584 
Q 2172 3584 2450 3431 
Q 2728 3278 2906 2969 
L 2906 3500 
L 3481 3500 
L 3481 434 
z
" transform="scale(0.015625)"/>
       </defs>
       <use xlink:href="#DejaVuSans-61"/>
       <use xlink:href="#DejaVuSans-75" x="61.279297"/>
       <use xlink:href="#DejaVuSans-67" x="124.658203"/>
       <use xlink:href="#DejaVuSans-75" x="188.134766"/>
       <use xlink:href="#DejaVuSans-73" x="251.513672"/>
       <use xlink:href="#DejaVuSans-74" x="303.613281"/>
       <use xlink:href="#DejaVuSans-5f" x="342.822266"/>
       <use xlink:href="#DejaVuSans-32" x="392.822266"/>
       <use xlink:href="#DejaVuSans-30" x="456.445312"/>
       <use xlink:href="#DejaVuSans-32" x="520.068359"/>
       <use xlink:href="#DejaVuSans-34" x="583.691406"/>
      </g>
     </g>
    </g>
   </g>
   <g id="matplotlib.axis_2">
    <g id="ytick_1">
     <g id="line2d_17">
      <path d="M 38.31274 672.649858 
L 716.99976 672.649858 
" clip-path="url(#p275e15dbf9)" style="fill: none; stroke: #b0b0b0; stroke-width: 0.8; stroke-linecap: square"/>
     </g>
     <g id="line2d_18"/>
     <g id="text_9">
      <!-- 0 -->
      <g transform="translate(28.45024 676.449077)scale(0.1 -0.1)">
       <use xlink:href="#DejaVuSans-30"/>
      </g>
     </g>
    </g>
    <g id="ytick_2">
     <g id="line2d_19">
      <path d="M 38.31274 546.736648 
L 716.99976 546.736648 
" clip-path="url(#p275e15dbf9)" style="fill: none; stroke: #b0b0b0; stroke-width: 0.8; stroke-linecap: square"/>
     </g>
     <g id="line2d_20"/>
     <g id="text_10">
      <!-- 2000 -->
      <g transform="translate(9.36274 550.535867)scale(0.1 -0.1)">
       <use xlink:href="#DejaVuSans-32"/>
       <use xlink:href="#DejaVuSans-30" x="63.623047"/>
       <use xlink:href="#DejaVuSans-30" x="127.246094"/>
       <use xlink:href="#DejaVuSans-30" x="190.869141"/>
      </g>
     </g>
    </g>
    <g id="ytick_3">
     <g id="line2d_21">
      <path d="M 38.31274 420.823438 
L 716.99976 420.823438 
" clip-path="url(#p275e15dbf9)" style="fill: none; stroke: #b0b0b0; stroke-width: 0.8; stroke-linecap: square"/>
     </g>
     <g id="line2d_22"/>
     <g id="text_11">
      <!-- 4000 -->
      <g transform="translate(9.36274 424.622657)scale(0.1 -0.1)">
       <use xlink:href="#DejaVuSans-34"/>
       <use xlink:href="#DejaVuSans-30" x="63.623047"/>
       <use xlink:href="#DejaVuSans-30" x="127.246094"/>
       <use xlink:href="#DejaVuSans-30" x="190.869141"/>
      </g>
     </g>
    </g>
    <g id="ytick_4">
     <g id="line2d_23">
      <path d="M 38.31274 294.910228 
L 716.99976 294.910228 
" clip-path="url(#p275e15dbf9)" style="fill: none; stroke: #b0b0b0; stroke-width: 0.8; stroke-linecap: square"/>
     </g>
     <g id="line2d_24"/>
     <g id="text_12">
      <!-- 6000 -->
      <g transform="translate(9.36274 298.709447)scale(0.1 -0.1)">
       <defs>
        <path id="DejaVuSans-36" d="M 2113 2584 
Q 1688 2584 1439 2293 
Q 1191 2003 1191 1497 
Q 1191 994 1439 701 
Q 1688 409 2113 409 
Q 2538 409 2786 701 
Q 3034 994 3034 1497 
Q 3034 2003 2786 2293 
Q 2538 2584 2113 2584 
z
M 3366 4563 
L 3366 3988 
Q 3128 4100 2886 4159 
Q 2644 4219 2406 4219 
Q 1781 4219 1451 3797 
Q 1122 3375 1075 2522 
Q 1259 2794 1537 2939 
Q 1816 3084 2150 3084 
Q 2853 3084 3261 2657 
Q 3669 2231 3669 1497 
Q 3669 778 3244 343 
Q 2819 -91 2113 -91 
Q 1303 -91 875 529 
Q 447 1150 447 2328 
Q 447 3434 972 4092 
Q 1497 4750 2381 4750 
Q 2619 4750 2861 4703 
Q 3103 4656 3366 4563 
z
" transform="scale(0.015625)"/>
       </defs>
       <use xlink:href="#DejaVuSans-36"/>
       <use xlink:href="#DejaVuSans-30" x="63.623047"/>
       <use xlink:href="#DejaVuSans-30" x="127.246094"/>
       <use xlink:href="#DejaVuSans-30" x="190.869141"/>
      </g>
     </g>
    </g>
    <g id="ytick_5">
     <g id="line2d_25">
      <path d="M 38.31274 168.997018 
L 716.99976 168.997018 
" clip-path="url(#p275e15dbf9)" style="fill: none; stroke: #b0b0b0; stroke-width: 0.8; stroke-linecap: square"/>
     </g>
     <g id="line2d_26"/>
     <g id="text_13">
      <!-- 8000 -->
      <g transform="translate(9.36274 172.796237)scale(0.1 -0.1)">
       <defs>
        <path id="DejaVuSans-38" d="M 2034 2216 
Q 1584 2216 1326 1975 
Q 1069 1734 1069 1313 
Q 1069 891 1326 650 
Q 1584 409 2034 409 
Q 2484 409 2743 651 
Q 3003 894 3003 1313 
Q 3003 1734 2745 1975 
Q 2488 2216 2034 2216 
z
M 1403 2484 
Q 997 2584 770 2862 
Q 544 3141 544 3541 
Q 544 4100 942 4425 
Q 1341 4750 2034 4750 
Q 2731 4750 3128 4425 
Q 3525 4100 3525 3541 
Q 3525 3141 3298 2862 
Q 3072 2584 2669 2484 
Q 3125 2378 3379 2068 
Q 3634 1759 3634 1313 
Q 3634 634 3220 271 
Q 2806 -91 2034 -91 
Q 1263 -91 848 271 
Q 434 634 434 1313 
Q 434 1759 690 2068 
Q 947 2378 1403 2484 
z
M 1172 3481 
Q 1172 3119 1398 2916 
Q 1625 2713 2034 2713 
Q 2441 2713 2670 2916 
Q 2900 3119 2900 3481 
Q 2900 3844 2670 4047 
Q 2441 4250 2034 4250 
Q 1625 4250 1398 4047 
Q 1172 3844 1172 3481 
z
" transform="scale(0.015625)"/>
       </defs>
       <use xlink:href="#DejaVuSans-38"/>
       <use xlink:href="#DejaVuSans-30" x="63.623047"/>
       <use xlink:href="#DejaVuSans-30" x="127.246094"/>
       <use xlink:href="#DejaVuSans-30" x="190.869141"/>
      </g>
     </g>
    </g>
    <g id="ytick_6">
     <g id="line2d_27">
      <path d="M 38.31274 43.083808 
L 716.99976 43.083808 
" clip-path="url(#p275e15dbf9)" style="fill: none; stroke: #b0b0b0; stroke-width: 0.8; stroke-linecap: square"/>
     </g>
     <g id="line2d_28"/>
     <g id="text_14">
      <!-- 10000 -->
      <g transform="translate(3.00024 46.883027)scale(0.1 -0.1)">
       <defs>
        <path id="DejaVuSans-31" d="M 794 531 
L 1825 531 
L 1825 4091 
L 703 3866 
L 703 4441 
L 1819 4666 
L 2450 4666 
L 2450 531 
L 3481 531 
L 3481 0 
L 794 0 
L 794 531 
z
" transform="scale(0.015625)"/>
       </defs>
       <use xlink:href="#DejaVuSans-31"/>
       <use xlink:href="#DejaVuSans-30" x="63.623047"/>
       <use xlink:href="#DejaVuSans-30" x="127.246094"/>
       <use xlink:href="#DejaVuSans-30" x="190.869141"/>
       <use xlink:href="#DejaVuSans-30" x="254.492188"/>
      </g>
     </g>
    </g>
   </g>
   <g id="line2d_29">
    <path d="M 59.521709 478.937228 
L 101.939648 478.937228 
L 101.939648 402.835837 
L 59.521709 402.835837 
L 59.521709 478.937228 
" clip-path="url(#p275e15dbf9)" style="fill: none; stroke: #000000; stroke-linecap: square"/>
   </g>
   <g id="line2d_30">
    <path d="M 80.730679 478.937228 
L 80.730679 578.214951 
" clip-path="url(#p275e15dbf9)" style="fill: none; stroke: #000000; stroke-linecap: square"/>
   </g>
   <g id="line2d_31">
    <path d="M 80.730679 402.835837 
L 80.730679 294.910228 
" clip-path="url(#p275e15dbf9)" style="fill: none; stroke: #000000; stroke-linecap: square"/>
   </g>
   <g id="line2d_32">
    <path d="M 70.126194 578.214951 
L 91.335163 578.214951 
" clip-path="url(#p275e15dbf9)" style="fill: none; stroke: #000000; stroke-linecap: square"/>
   </g>
   <g id="line2d_33">
    <path d="M 70.126194 294.910228 
L 91.335163 294.910228 
" clip-path="url(#p275e15dbf9)" style="fill: none; stroke: #000000; stroke-linecap: square"/>
   </g>
   <g id="line2d_34">
    <defs>
     <path id="mc582a2d4cd" d="M 0 3 
C 0.795609 3 1.55874 2.683901 2.12132 2.12132 
C 2.683901 1.55874 3 0.795609 3 0 
C 3 -0.795609 2.683901 -1.55874 2.12132 -2.12132 
C 1.55874 -2.683901 0.795609 -3 0 -3 
C -0.795609 -3 -1.55874 -2.683901 -2.12132 -2.12132 
C -2.683901 -1.55874 -3 -0.795609 -3 0 
C -3 0.795609 -2.683901 1.55874 -2.12132 2.12132 
C -1.55874 2.683901 -0.795609 3 0 3 
z
" style="stroke: #000000"/>
    </defs>
    <g clip-path="url(#p275e15dbf9)">
     <use xlink:href="#mc582a2d4cd" x="80.730679" y="616.150341" style="fill-opacity: 0; stroke: #000000"/>
     <use xlink:href="#mc582a2d4cd" x="80.730679" y="611.442048" style="fill-opacity: 0; stroke: #000000"/>
     <use xlink:href="#mc582a2d4cd" x="80.730679" y="279.569079" style="fill-opacity: 0; stroke: #000000"/>
     <use xlink:href="#mc582a2d4cd" x="80.730679" y="192.472363" style="fill-opacity: 0; stroke: #000000"/>
     <use xlink:href="#mc582a2d4cd" x="80.730679" y="111.763741" style="fill-opacity: 0; stroke: #000000"/>
     <use xlink:href="#mc582a2d4cd" x="80.730679" y="148.011483" style="fill-opacity: 0; stroke: #000000"/>
     <use xlink:href="#mc582a2d4cd" x="80.730679" y="279.171077" style="fill-opacity: 0; stroke: #000000"/>
     <use xlink:href="#mc582a2d4cd" x="80.730679" y="267.928826" style="fill-opacity: 0; stroke: #000000"/>
     <use xlink:href="#mc582a2d4cd" x="80.730679" y="248.903479" style="fill-opacity: 0; stroke: #000000"/>
    </g>
   </g>
   <g id="line2d_35">
    <path d="M 144.357587 498.976465 
L 186.775526 498.976465 
L 186.775526 419.725358 
L 144.357587 419.725358 
L 144.357587 498.976465 
" clip-path="url(#p275e15dbf9)" style="fill: none; stroke: #000000; stroke-linecap: square"/>
   </g>
   <g id="line2d_36">
    <path d="M 165.566556 498.976465 
L 165.566556 582.711851 
" clip-path="url(#p275e15dbf9)" style="fill: none; stroke: #000000; stroke-linecap: square"/>
   </g>
   <g id="line2d_37">
    <path d="M 165.566556 419.725358 
L 165.566556 302.316888 
" clip-path="url(#p275e15dbf9)" style="fill: none; stroke: #000000; stroke-linecap: square"/>
   </g>
   <g id="line2d_38">
    <path d="M 154.962072 582.711851 
L 176.171041 582.711851 
" clip-path="url(#p275e15dbf9)" style="fill: none; stroke: #000000; stroke-linecap: square"/>
   </g>
   <g id="line2d_39">
    <path d="M 154.962072 302.316888 
L 176.171041 302.316888 
" clip-path="url(#p275e15dbf9)" style="fill: none; stroke: #000000; stroke-linecap: square"/>
   </g>
   <g id="line2d_40">
    <g clip-path="url(#p275e15dbf9)">
     <use xlink:href="#mc582a2d4cd" x="165.566556" y="641.171556" style="fill-opacity: 0; stroke: #000000"/>
     <use xlink:href="#mc582a2d4cd" x="165.566556" y="148.011483" style="fill-opacity: 0; stroke: #000000"/>
     <use xlink:href="#mc582a2d4cd" x="165.566556" y="192.472363" style="fill-opacity: 0; stroke: #000000"/>
     <use xlink:href="#mc582a2d4cd" x="165.566556" y="277.504579" style="fill-opacity: 0; stroke: #000000"/>
     <use xlink:href="#mc582a2d4cd" x="165.566556" y="238.466376" style="fill-opacity: 0; stroke: #000000"/>
     <use xlink:href="#mc582a2d4cd" x="165.566556" y="279.569079" style="fill-opacity: 0; stroke: #000000"/>
     <use xlink:href="#mc582a2d4cd" x="165.566556" y="239.264713" style="fill-opacity: 0; stroke: #000000"/>
    </g>
   </g>
   <g id="line2d_41">
    <path d="M 229.193464 445.486851 
L 271.611403 445.486851 
L 271.611403 302.316888 
L 229.193464 302.316888 
L 229.193464 445.486851 
" clip-path="url(#p275e15dbf9)" style="fill: none; stroke: #000000; stroke-linecap: square"/>
   </g>
   <g id="line2d_42">
    <path d="M 250.402434 445.486851 
L 250.402434 634.875895 
" clip-path="url(#p275e15dbf9)" style="fill: none; stroke: #000000; stroke-linecap: square"/>
   </g>
   <g id="line2d_43">
    <path d="M 250.402434 302.316888 
L 250.402434 170.721857 
" clip-path="url(#p275e15dbf9)" style="fill: none; stroke: #000000; stroke-linecap: square"/>
   </g>
   <g id="line2d_44">
    <path d="M 239.797949 634.875895 
L 261.006918 634.875895 
" clip-path="url(#p275e15dbf9)" style="fill: none; stroke: #000000; stroke-linecap: square"/>
   </g>
   <g id="line2d_45">
    <path d="M 239.797949 170.721857 
L 261.006918 170.721857 
" clip-path="url(#p275e15dbf9)" style="fill: none; stroke: #000000; stroke-linecap: square"/>
   </g>
   <g id="line2d_46"/>
   <g id="line2d_47">
    <path d="M 314.029342 442.715167 
L 356.447281 442.715167 
L 356.447281 347.93368 
L 314.029342 347.93368 
L 314.029342 442.715167 
" clip-path="url(#p275e15dbf9)" style="fill: none; stroke: #000000; stroke-linecap: square"/>
   </g>
   <g id="line2d_48">
    <path d="M 335.238311 442.715167 
L 335.238311 582.711851 
" clip-path="url(#p275e15dbf9)" style="fill: none; stroke: #000000; stroke-linecap: square"/>
   </g>
   <g id="line2d_49">
    <path d="M 335.238311 347.93368 
L 335.238311 238.466376 
" clip-path="url(#p275e15dbf9)" style="fill: none; stroke: #000000; stroke-linecap: square"/>
   </g>
   <g id="line2d_50">
    <path d="M 324.633827 582.711851 
L 345.842796 582.711851 
" clip-path="url(#p275e15dbf9)" style="fill: none; stroke: #000000; stroke-linecap: square"/>
   </g>
   <g id="line2d_51">
    <path d="M 324.633827 238.466376 
L 345.842796 238.466376 
" clip-path="url(#p275e15dbf9)" style="fill: none; stroke: #000000; stroke-linecap: square"/>
   </g>
   <g id="line2d_52">
    <g clip-path="url(#p275e15dbf9)">
     <use xlink:href="#mc582a2d4cd" x="335.238311" y="634.875895" style="fill-opacity: 0; stroke: #000000"/>
     <use xlink:href="#mc582a2d4cd" x="335.238311" y="593.954102" style="fill-opacity: 0; stroke: #000000"/>
    </g>
   </g>
   <g id="line2d_53">
    <path d="M 398.865219 475.195052 
L 441.283158 475.195052 
L 441.283158 369.99136 
L 398.865219 369.99136 
L 398.865219 475.195052 
" clip-path="url(#p275e15dbf9)" style="fill: none; stroke: #000000; stroke-linecap: square"/>
   </g>
   <g id="line2d_54">
    <path d="M 420.074189 475.195052 
L 420.074189 609.693253 
" clip-path="url(#p275e15dbf9)" style="fill: none; stroke: #000000; stroke-linecap: square"/>
   </g>
   <g id="line2d_55">
    <path d="M 420.074189 369.99136 
L 420.074189 238.466376 
" clip-path="url(#p275e15dbf9)" style="fill: none; stroke: #000000; stroke-linecap: square"/>
   </g>
   <g id="line2d_56">
    <path d="M 409.469704 609.693253 
L 430.678673 609.693253 
" clip-path="url(#p275e15dbf9)" style="fill: none; stroke: #000000; stroke-linecap: square"/>
   </g>
   <g id="line2d_57">
    <path d="M 409.469704 238.466376 
L 430.678673 238.466376 
" clip-path="url(#p275e15dbf9)" style="fill: none; stroke: #000000; stroke-linecap: square"/>
   </g>
   <g id="line2d_58"/>
   <g id="line2d_59">
    <path d="M 483.701097 485.857364 
L 526.119036 485.857364 
L 526.119036 384.575696 
L 483.701097 384.575696 
L 483.701097 485.857364 
" clip-path="url(#p275e15dbf9)" style="fill: none; stroke: #000000; stroke-linecap: square"/>
   </g>
   <g id="line2d_60">
    <path d="M 504.910066 485.857364 
L 504.910066 634.875895 
" clip-path="url(#p275e15dbf9)" style="fill: none; stroke: #000000; stroke-linecap: square"/>
   </g>
   <g id="line2d_61">
    <path d="M 504.910066 384.575696 
L 504.910066 238.466376 
" clip-path="url(#p275e15dbf9)" style="fill: none; stroke: #000000; stroke-linecap: square"/>
   </g>
   <g id="line2d_62">
    <path d="M 494.305582 634.875895 
L 515.514551 634.875895 
" clip-path="url(#p275e15dbf9)" style="fill: none; stroke: #000000; stroke-linecap: square"/>
   </g>
   <g id="line2d_63">
    <path d="M 494.305582 238.466376 
L 515.514551 238.466376 
" clip-path="url(#p275e15dbf9)" style="fill: none; stroke: #000000; stroke-linecap: square"/>
   </g>
   <g id="line2d_64">
    <g clip-path="url(#p275e15dbf9)">
     <use xlink:href="#mc582a2d4cd" x="504.910066" y="670.572291" style="fill-opacity: 0; stroke: #000000"/>
    </g>
   </g>
   <g id="line2d_65">
    <path d="M 568.536974 462.794508 
L 610.954913 462.794508 
L 610.954913 410.330671 
L 568.536974 410.330671 
L 568.536974 462.794508 
" clip-path="url(#p275e15dbf9)" style="fill: none; stroke: #000000; stroke-linecap: square"/>
   </g>
   <g id="line2d_66">
    <path d="M 589.745944 462.794508 
L 589.745944 515.258346 
" clip-path="url(#p275e15dbf9)" style="fill: none; stroke: #000000; stroke-linecap: square"/>
   </g>
   <g id="line2d_67">
    <path d="M 589.745944 410.330671 
L 589.745944 341.299306 
" clip-path="url(#p275e15dbf9)" style="fill: none; stroke: #000000; stroke-linecap: square"/>
   </g>
   <g id="line2d_68">
    <path d="M 579.141459 515.258346 
L 600.350428 515.258346 
" clip-path="url(#p275e15dbf9)" style="fill: none; stroke: #000000; stroke-linecap: square"/>
   </g>
   <g id="line2d_69">
    <path d="M 579.141459 341.299306 
L 600.350428 341.299306 
" clip-path="url(#p275e15dbf9)" style="fill: none; stroke: #000000; stroke-linecap: square"/>
   </g>
   <g id="line2d_70">
    <g clip-path="url(#p275e15dbf9)">
     <use xlink:href="#mc582a2d4cd" x="589.745944" y="609.693253" style="fill-opacity: 0; stroke: #000000"/>
     <use xlink:href="#mc582a2d4cd" x="589.745944" y="563.160111" style="fill-opacity: 0; stroke: #000000"/>
     <use xlink:href="#mc582a2d4cd" x="589.745944" y="582.711851" style="fill-opacity: 0; stroke: #000000"/>
     <use xlink:href="#mc582a2d4cd" x="589.745944" y="672.501281" style="fill-opacity: 0; stroke: #000000"/>
     <use xlink:href="#mc582a2d4cd" x="589.745944" y="551.983032" style="fill-opacity: 0; stroke: #000000"/>
     <use xlink:href="#mc582a2d4cd" x="589.745944" y="607.070062" style="fill-opacity: 0; stroke: #000000"/>
     <use xlink:href="#mc582a2d4cd" x="589.745944" y="267.928826" style="fill-opacity: 0; stroke: #000000"/>
     <use xlink:href="#mc582a2d4cd" x="589.745944" y="241.440235" style="fill-opacity: 0; stroke: #000000"/>
    </g>
   </g>
   <g id="line2d_71">
    <path d="M 653.372852 511.222666 
L 695.790791 511.222666 
L 695.790791 427.950105 
L 653.372852 427.950105 
L 653.372852 511.222666 
" clip-path="url(#p275e15dbf9)" style="fill: none; stroke: #000000; stroke-linecap: square"/>
   </g>
   <g id="line2d_72">
    <path d="M 674.581821 511.222666 
L 674.581821 622.284574 
" clip-path="url(#p275e15dbf9)" style="fill: none; stroke: #000000; stroke-linecap: square"/>
   </g>
   <g id="line2d_73">
    <path d="M 674.581821 427.950105 
L 674.581821 316.291717 
" clip-path="url(#p275e15dbf9)" style="fill: none; stroke: #000000; stroke-linecap: square"/>
   </g>
   <g id="line2d_74">
    <path d="M 663.977337 622.284574 
L 685.186306 622.284574 
" clip-path="url(#p275e15dbf9)" style="fill: none; stroke: #000000; stroke-linecap: square"/>
   </g>
   <g id="line2d_75">
    <path d="M 663.977337 316.291717 
L 685.186306 316.291717 
" clip-path="url(#p275e15dbf9)" style="fill: none; stroke: #000000; stroke-linecap: square"/>
   </g>
   <g id="line2d_76">
    <g clip-path="url(#p275e15dbf9)">
     <use xlink:href="#mc582a2d4cd" x="674.581821" y="267.928826" style="fill-opacity: 0; stroke: #000000"/>
     <use xlink:href="#mc582a2d4cd" x="674.581821" y="189.982553" style="fill-opacity: 0; stroke: #000000"/>
     <use xlink:href="#mc582a2d4cd" x="674.581821" y="259.819662" style="fill-opacity: 0; stroke: #000000"/>
     <use xlink:href="#mc582a2d4cd" x="674.581821" y="272.016917" style="fill-opacity: 0; stroke: #000000"/>
     <use xlink:href="#mc582a2d4cd" x="674.581821" y="51.656699" style="fill-opacity: 0; stroke: #000000"/>
     <use xlink:href="#mc582a2d4cd" x="674.581821" y="224.6894" style="fill-opacity: 0; stroke: #000000"/>
     <use xlink:href="#mc582a2d4cd" x="674.581821" y="267.928826" style="fill-opacity: 0; stroke: #000000"/>
     <use xlink:href="#mc582a2d4cd" x="674.581821" y="189.982553" style="fill-opacity: 0; stroke: #000000"/>
     <use xlink:href="#mc582a2d4cd" x="674.581821" y="259.819662" style="fill-opacity: 0; stroke: #000000"/>
     <use xlink:href="#mc582a2d4cd" x="674.581821" y="272.016917" style="fill-opacity: 0; stroke: #000000"/>
     <use xlink:href="#mc582a2d4cd" x="674.581821" y="51.656699" style="fill-opacity: 0; stroke: #000000"/>
     <use xlink:href="#mc582a2d4cd" x="674.581821" y="224.6894" style="fill-opacity: 0; stroke: #000000"/>
    </g>
   </g>
   <g id="line2d_77">
    <path d="M 59.521709 442.464771 
L 101.939648 442.464771 
" clip-path="url(#p275e15dbf9)" style="fill: none; stroke: #ff7f0e; stroke-linecap: square"/>
   </g>
   <g id="line2d_78">
    <path d="M 144.357587 457.254408 
L 186.775526 457.254408 
" clip-path="url(#p275e15dbf9)" style="fill: none; stroke: #ff7f0e; stroke-linecap: square"/>
   </g>
   <g id="line2d_79">
    <path d="M 229.193464 378.852368 
L 271.611403 378.852368 
" clip-path="url(#p275e15dbf9)" style="fill: none; stroke: #ff7f0e; stroke-linecap: square"/>
   </g>
   <g id="line2d_80">
    <path d="M 314.029342 399.575584 
L 356.447281 399.575584 
" clip-path="url(#p275e15dbf9)" style="fill: none; stroke: #ff7f0e; stroke-linecap: square"/>
   </g>
   <g id="line2d_81">
    <path d="M 398.865219 430.50907 
L 441.283158 430.50907 
" clip-path="url(#p275e15dbf9)" style="fill: none; stroke: #ff7f0e; stroke-linecap: square"/>
   </g>
   <g id="line2d_82">
    <path d="M 483.701097 442.720693 
L 526.119036 442.720693 
" clip-path="url(#p275e15dbf9)" style="fill: none; stroke: #ff7f0e; stroke-linecap: square"/>
   </g>
   <g id="line2d_83">
    <path d="M 568.536974 436.56259 
L 610.954913 436.56259 
" clip-path="url(#p275e15dbf9)" style="fill: none; stroke: #ff7f0e; stroke-linecap: square"/>
   </g>
   <g id="line2d_84">
    <path d="M 653.372852 471.767961 
L 695.790791 471.767961 
" clip-path="url(#p275e15dbf9)" style="fill: none; stroke: #ff7f0e; stroke-linecap: square"/>
   </g>
   <g id="patch_3">
    <path d="M 38.31274 703.54351 
L 38.31274 20.61447 
" style="fill: none; stroke: #000000; stroke-width: 0.8; stroke-linejoin: miter; stroke-linecap: square"/>
   </g>
   <g id="patch_4">
    <path d="M 716.99976 703.54351 
L 716.99976 20.61447 
" style="fill: none; stroke: #000000; stroke-width: 0.8; stroke-linejoin: miter; stroke-linecap: square"/>
   </g>
   <g id="patch_5">
    <path d="M 38.31274 703.54351 
L 716.99976 703.54351 
" style="fill: none; stroke: #000000; stroke-width: 0.8; stroke-linejoin: miter; stroke-linecap: square"/>
   </g>
   <g id="patch_6">
    <path d="M 38.31274 20.61447 
L 716.99976 20.61447 
" style="fill: none; stroke: #000000; stroke-width: 0.8; stroke-linejoin: miter; stroke-linecap: square"/>
   </g>
  </g>
  <g id="text_15">
   <!-- Rent cost by months in Shengavit -->
   <g transform="translate(258.681562 12.118365)scale(0.12 -0.12)">
    <defs>
     <path id="DejaVuSans-52" d="M 2841 2188 
Q 3044 2119 3236 1894 
Q 3428 1669 3622 1275 
L 4263 0 
L 3584 0 
L 2988 1197 
Q 2756 1666 2539 1819 
Q 2322 1972 1947 1972 
L 1259 1972 
L 1259 0 
L 628 0 
L 628 4666 
L 2053 4666 
Q 2853 4666 3247 4331 
Q 3641 3997 3641 3322 
Q 3641 2881 3436 2590 
Q 3231 2300 2841 2188 
z
M 1259 4147 
L 1259 2491 
L 2053 2491 
Q 2509 2491 2742 2702 
Q 2975 2913 2975 3322 
Q 2975 3731 2742 3939 
Q 2509 4147 2053 4147 
L 1259 4147 
z
" transform="scale(0.015625)"/>
     <path id="DejaVuSans-20" transform="scale(0.015625)"/>
     <path id="DejaVuSans-68" d="M 3513 2113 
L 3513 0 
L 2938 0 
L 2938 2094 
Q 2938 2591 2744 2837 
Q 2550 3084 2163 3084 
Q 1697 3084 1428 2787 
Q 1159 2491 1159 1978 
L 1159 0 
L 581 0 
L 581 4863 
L 1159 4863 
L 1159 2956 
Q 1366 3272 1645 3428 
Q 1925 3584 2291 3584 
Q 2894 3584 3203 3211 
Q 3513 2838 3513 2113 
z
" transform="scale(0.015625)"/>
     <path id="DejaVuSans-53" d="M 3425 4513 
L 3425 3897 
Q 3066 4069 2747 4153 
Q 2428 4238 2131 4238 
Q 1616 4238 1336 4038 
Q 1056 3838 1056 3469 
Q 1056 3159 1242 3001 
Q 1428 2844 1947 2747 
L 2328 2669 
Q 3034 2534 3370 2195 
Q 3706 1856 3706 1288 
Q 3706 609 3251 259 
Q 2797 -91 1919 -91 
Q 1588 -91 1214 -16 
Q 841 59 441 206 
L 441 856 
Q 825 641 1194 531 
Q 1563 422 1919 422 
Q 2459 422 2753 634 
Q 3047 847 3047 1241 
Q 3047 1584 2836 1778 
Q 2625 1972 2144 2069 
L 1759 2144 
Q 1053 2284 737 2584 
Q 422 2884 422 3419 
Q 422 4038 858 4394 
Q 1294 4750 2059 4750 
Q 2388 4750 2728 4690 
Q 3069 4631 3425 4513 
z
" transform="scale(0.015625)"/>
    </defs>
    <use xlink:href="#DejaVuSans-52"/>
    <use xlink:href="#DejaVuSans-65" x="64.982422"/>
    <use xlink:href="#DejaVuSans-6e" x="126.505859"/>
    <use xlink:href="#DejaVuSans-74" x="189.884766"/>
    <use xlink:href="#DejaVuSans-20" x="229.09375"/>
    <use xlink:href="#DejaVuSans-63" x="260.880859"/>
    <use xlink:href="#DejaVuSans-6f" x="315.861328"/>
    <use xlink:href="#DejaVuSans-73" x="377.042969"/>
    <use xlink:href="#DejaVuSans-74" x="429.142578"/>
    <use xlink:href="#DejaVuSans-20" x="468.351562"/>
    <use xlink:href="#DejaVuSans-62" x="500.138672"/>
    <use xlink:href="#DejaVuSans-79" x="563.615234"/>
    <use xlink:href="#DejaVuSans-20" x="622.794922"/>
    <use xlink:href="#DejaVuSans-6d" x="654.582031"/>
    <use xlink:href="#DejaVuSans-6f" x="751.994141"/>
    <use xlink:href="#DejaVuSans-6e" x="813.175781"/>
    <use xlink:href="#DejaVuSans-74" x="876.554688"/>
    <use xlink:href="#DejaVuSans-68" x="915.763672"/>
    <use xlink:href="#DejaVuSans-73" x="979.142578"/>
    <use xlink:href="#DejaVuSans-20" x="1031.242188"/>
    <use xlink:href="#DejaVuSans-69" x="1063.029297"/>
    <use xlink:href="#DejaVuSans-6e" x="1090.8125"/>
    <use xlink:href="#DejaVuSans-20" x="1154.191406"/>
    <use xlink:href="#DejaVuSans-53" x="1185.978516"/>
    <use xlink:href="#DejaVuSans-68" x="1249.455078"/>
    <use xlink:href="#DejaVuSans-65" x="1312.833984"/>
    <use xlink:href="#DejaVuSans-6e" x="1374.357422"/>
    <use xlink:href="#DejaVuSans-67" x="1437.736328"/>
    <use xlink:href="#DejaVuSans-61" x="1501.212891"/>
    <use xlink:href="#DejaVuSans-76" x="1562.492188"/>
    <use xlink:href="#DejaVuSans-69" x="1621.671875"/>
    <use xlink:href="#DejaVuSans-74" x="1649.455078"/>
   </g>
  </g>
 </g>
 <defs>
  <clipPath id="p275e15dbf9">
   <rect x="38.31274" y="20.61447" width="678.68702" height="682.92904"/>
  </clipPath>
 </defs>
</svg>
