<?xml version="1.0" encoding="utf-8" standalone="no"?>
<!DOCTYPE svg PUBLIC "-//W3C//DTD SVG 1.1//EN"
  "http://www.w3.org/Graphics/SVG/1.1/DTD/svg11.dtd">
<svg xmlns:xlink="http://www.w3.org/1999/xlink" width="720pt" height="720pt" viewBox="0 0 720 720" xmlns="http://www.w3.org/2000/svg" version="1.1">
 <metadata>
  <rdf:RDF xmlns:dc="http://purl.org/dc/elements/1.1/" xmlns:cc="http://creativecommons.org/ns#" xmlns:rdf="http://www.w3.org/1999/02/22-rdf-syntax-ns#">
   <cc:Work>
    <dc:type rdf:resource="http://purl.org/dc/dcmitype/StillImage"/>
    <dc:date>2024-01-01T20:39:30.346494</dc:date>
    <dc:format>image/svg+xml</dc:format>
    <dc:creator>
     <cc:Agent>
      <dc:title>Matplotlib v3.5.1, https://matplotlib.org/</dc:title>
     </cc:Agent>
    </dc:creator>
   </cc:Work>
  </rdf:RDF>
 </metadata>
 <defs>
  <style type="text/css">*{stroke-linejoin: round; stroke-linecap: butt}</style>
 </defs>
 <g id="figure_1">
  <g id="patch_1">
   <path d="M 0 720 
L 720 720 
L 720 0 
L 0 0 
z
" style="fill: #87cefa"/>
  </g>
  <g id="axes_1">
   <g id="patch_2">
    <path d="M 38.31274 703.54351 
L 716.99976 703.54351 
L 716.99976 20.61447 
L 38.31274 20.61447 
z
" style="fill: #ffffff"/>
   </g>
   <g id="matplotlib.axis_1">
    <g id="xtick_1">
     <g id="line2d_1">
      <path d="M 94.869992 703.54351 
L 94.869992 20.61447 
" clip-path="url(#pf57410f6de)" style="fill: none; stroke: #b0b0b0; stroke-width: 0.8; stroke-linecap: square"/>
     </g>
     <g id="line2d_2"/>
     <g id="text_1">
      <!-- april_2023 -->
      <g transform="translate(68.573117 714.641948)scale(0.1 -0.1)">
       <defs>
        <path id="DejaVuSans-61" d="M 2194 1759 
Q 1497 1759 1228 1600 
Q 959 1441 959 1056 
Q 959 750 1161 570 
Q 1363 391 1709 391 
Q 2188 391 2477 730 
Q 2766 1069 2766 1631 
L 2766 1759 
L 2194 1759 
z
M 3341 1997 
L 3341 0 
L 2766 0 
L 2766 531 
Q 2569 213 2275 61 
Q 1981 -91 1556 -91 
Q 1019 -91 701 211 
Q 384 513 384 1019 
Q 384 1609 779 1909 
Q 1175 2209 1959 2209 
L 2766 2209 
L 2766 2266 
Q 2766 2663 2505 2880 
Q 2244 3097 1772 3097 
Q 1472 3097 1187 3025 
Q 903 2953 641 2809 
L 641 3341 
Q 956 3463 1253 3523 
Q 1550 3584 1831 3584 
Q 2591 3584 2966 3190 
Q 3341 2797 3341 1997 
z
" transform="scale(0.015625)"/>
        <path id="DejaVuSans-70" d="M 1159 525 
L 1159 -1331 
L 581 -1331 
L 581 3500 
L 1159 3500 
L 1159 2969 
Q 1341 3281 1617 3432 
Q 1894 3584 2278 3584 
Q 2916 3584 3314 3078 
Q 3713 2572 3713 1747 
Q 3713 922 3314 415 
Q 2916 -91 2278 -91 
Q 1894 -91 1617 61 
Q 1341 213 1159 525 
z
M 3116 1747 
Q 3116 2381 2855 2742 
Q 2594 3103 2138 3103 
Q 1681 3103 1420 2742 
Q 1159 2381 1159 1747 
Q 1159 1113 1420 752 
Q 1681 391 2138 391 
Q 2594 391 2855 752 
Q 3116 1113 3116 1747 
z
" transform="scale(0.015625)"/>
        <path id="DejaVuSans-72" d="M 2631 2963 
Q 2534 3019 2420 3045 
Q 2306 3072 2169 3072 
Q 1681 3072 1420 2755 
Q 1159 2438 1159 1844 
L 1159 0 
L 581 0 
L 581 3500 
L 1159 3500 
L 1159 2956 
Q 1341 3275 1631 3429 
Q 1922 3584 2338 3584 
Q 2397 3584 2469 3576 
Q 2541 3569 2628 3553 
L 2631 2963 
z
" transform="scale(0.015625)"/>
        <path id="DejaVuSans-69" d="M 603 3500 
L 1178 3500 
L 1178 0 
L 603 0 
L 603 3500 
z
M 603 4863 
L 1178 4863 
L 1178 4134 
L 603 4134 
L 603 4863 
z
" transform="scale(0.015625)"/>
        <path id="DejaVuSans-6c" d="M 603 4863 
L 1178 4863 
L 1178 0 
L 603 0 
L 603 4863 
z
" transform="scale(0.015625)"/>
        <path id="DejaVuSans-5f" d="M 3263 -1063 
L 3263 -1509 
L -63 -1509 
L -63 -1063 
L 3263 -1063 
z
" transform="scale(0.015625)"/>
        <path id="DejaVuSans-32" d="M 1228 531 
L 3431 531 
L 3431 0 
L 469 0 
L 469 531 
Q 828 903 1448 1529 
Q 2069 2156 2228 2338 
Q 2531 2678 2651 2914 
Q 2772 3150 2772 3378 
Q 2772 3750 2511 3984 
Q 2250 4219 1831 4219 
Q 1534 4219 1204 4116 
Q 875 4013 500 3803 
L 500 4441 
Q 881 4594 1212 4672 
Q 1544 4750 1819 4750 
Q 2544 4750 2975 4387 
Q 3406 4025 3406 3419 
Q 3406 3131 3298 2873 
Q 3191 2616 2906 2266 
Q 2828 2175 2409 1742 
Q 1991 1309 1228 531 
z
" transform="scale(0.015625)"/>
        <path id="DejaVuSans-30" d="M 2034 4250 
Q 1547 4250 1301 3770 
Q 1056 3291 1056 2328 
Q 1056 1369 1301 889 
Q 1547 409 2034 409 
Q 2525 409 2770 889 
Q 3016 1369 3016 2328 
Q 3016 3291 2770 3770 
Q 2525 4250 2034 4250 
z
M 2034 4750 
Q 2819 4750 3233 4129 
Q 3647 3509 3647 2328 
Q 3647 1150 3233 529 
Q 2819 -91 2034 -91 
Q 1250 -91 836 529 
Q 422 1150 422 2328 
Q 422 3509 836 4129 
Q 1250 4750 2034 4750 
z
" transform="scale(0.015625)"/>
        <path id="DejaVuSans-33" d="M 2597 2516 
Q 3050 2419 3304 2112 
Q 3559 1806 3559 1356 
Q 3559 666 3084 287 
Q 2609 -91 1734 -91 
Q 1441 -91 1130 -33 
Q 819 25 488 141 
L 488 750 
Q 750 597 1062 519 
Q 1375 441 1716 441 
Q 2309 441 2620 675 
Q 2931 909 2931 1356 
Q 2931 1769 2642 2001 
Q 2353 2234 1838 2234 
L 1294 2234 
L 1294 2753 
L 1863 2753 
Q 2328 2753 2575 2939 
Q 2822 3125 2822 3475 
Q 2822 3834 2567 4026 
Q 2313 4219 1838 4219 
Q 1578 4219 1281 4162 
Q 984 4106 628 3988 
L 628 4550 
Q 988 4650 1302 4700 
Q 1616 4750 1894 4750 
Q 2613 4750 3031 4423 
Q 3450 4097 3450 3541 
Q 3450 3153 3228 2886 
Q 3006 2619 2597 2516 
z
" transform="scale(0.015625)"/>
       </defs>
       <use xlink:href="#DejaVuSans-61"/>
       <use xlink:href="#DejaVuSans-70" x="61.279297"/>
       <use xlink:href="#DejaVuSans-72" x="124.755859"/>
       <use xlink:href="#DejaVuSans-69" x="165.869141"/>
       <use xlink:href="#DejaVuSans-6c" x="193.652344"/>
       <use xlink:href="#DejaVuSans-5f" x="221.435547"/>
       <use xlink:href="#DejaVuSans-32" x="271.435547"/>
       <use xlink:href="#DejaVuSans-30" x="335.058594"/>
       <use xlink:href="#DejaVuSans-32" x="398.681641"/>
       <use xlink:href="#DejaVuSans-33" x="462.304688"/>
      </g>
     </g>
    </g>
    <g id="xtick_2">
     <g id="line2d_3">
      <path d="M 207.984495 703.54351 
L 207.984495 20.61447 
" clip-path="url(#pf57410f6de)" style="fill: none; stroke: #b0b0b0; stroke-width: 0.8; stroke-linecap: square"/>
     </g>
     <g id="line2d_4"/>
     <g id="text_2">
      <!-- september_2023 -->
      <g transform="translate(165.690745 714.641948)scale(0.1 -0.1)">
       <defs>
        <path id="DejaVuSans-73" d="M 2834 3397 
L 2834 2853 
Q 2591 2978 2328 3040 
Q 2066 3103 1784 3103 
Q 1356 3103 1142 2972 
Q 928 2841 928 2578 
Q 928 2378 1081 2264 
Q 1234 2150 1697 2047 
L 1894 2003 
Q 2506 1872 2764 1633 
Q 3022 1394 3022 966 
Q 3022 478 2636 193 
Q 2250 -91 1575 -91 
Q 1294 -91 989 -36 
Q 684 19 347 128 
L 347 722 
Q 666 556 975 473 
Q 1284 391 1588 391 
Q 1994 391 2212 530 
Q 2431 669 2431 922 
Q 2431 1156 2273 1281 
Q 2116 1406 1581 1522 
L 1381 1569 
Q 847 1681 609 1914 
Q 372 2147 372 2553 
Q 372 3047 722 3315 
Q 1072 3584 1716 3584 
Q 2034 3584 2315 3537 
Q 2597 3491 2834 3397 
z
" transform="scale(0.015625)"/>
        <path id="DejaVuSans-65" d="M 3597 1894 
L 3597 1613 
L 953 1613 
Q 991 1019 1311 708 
Q 1631 397 2203 397 
Q 2534 397 2845 478 
Q 3156 559 3463 722 
L 3463 178 
Q 3153 47 2828 -22 
Q 2503 -91 2169 -91 
Q 1331 -91 842 396 
Q 353 884 353 1716 
Q 353 2575 817 3079 
Q 1281 3584 2069 3584 
Q 2775 3584 3186 3129 
Q 3597 2675 3597 1894 
z
M 3022 2063 
Q 3016 2534 2758 2815 
Q 2500 3097 2075 3097 
Q 1594 3097 1305 2825 
Q 1016 2553 972 2059 
L 3022 2063 
z
" transform="scale(0.015625)"/>
        <path id="DejaVuSans-74" d="M 1172 4494 
L 1172 3500 
L 2356 3500 
L 2356 3053 
L 1172 3053 
L 1172 1153 
Q 1172 725 1289 603 
Q 1406 481 1766 481 
L 2356 481 
L 2356 0 
L 1766 0 
Q 1100 0 847 248 
Q 594 497 594 1153 
L 594 3053 
L 172 3053 
L 172 3500 
L 594 3500 
L 594 4494 
L 1172 4494 
z
" transform="scale(0.015625)"/>
        <path id="DejaVuSans-6d" d="M 3328 2828 
Q 3544 3216 3844 3400 
Q 4144 3584 4550 3584 
Q 5097 3584 5394 3201 
Q 5691 2819 5691 2113 
L 5691 0 
L 5113 0 
L 5113 2094 
Q 5113 2597 4934 2840 
Q 4756 3084 4391 3084 
Q 3944 3084 3684 2787 
Q 3425 2491 3425 1978 
L 3425 0 
L 2847 0 
L 2847 2094 
Q 2847 2600 2669 2842 
Q 2491 3084 2119 3084 
Q 1678 3084 1418 2786 
Q 1159 2488 1159 1978 
L 1159 0 
L 581 0 
L 581 3500 
L 1159 3500 
L 1159 2956 
Q 1356 3278 1631 3431 
Q 1906 3584 2284 3584 
Q 2666 3584 2933 3390 
Q 3200 3197 3328 2828 
z
" transform="scale(0.015625)"/>
        <path id="DejaVuSans-62" d="M 3116 1747 
Q 3116 2381 2855 2742 
Q 2594 3103 2138 3103 
Q 1681 3103 1420 2742 
Q 1159 2381 1159 1747 
Q 1159 1113 1420 752 
Q 1681 391 2138 391 
Q 2594 391 2855 752 
Q 3116 1113 3116 1747 
z
M 1159 2969 
Q 1341 3281 1617 3432 
Q 1894 3584 2278 3584 
Q 2916 3584 3314 3078 
Q 3713 2572 3713 1747 
Q 3713 922 3314 415 
Q 2916 -91 2278 -91 
Q 1894 -91 1617 61 
Q 1341 213 1159 525 
L 1159 0 
L 581 0 
L 581 4863 
L 1159 4863 
L 1159 2969 
z
" transform="scale(0.015625)"/>
       </defs>
       <use xlink:href="#DejaVuSans-73"/>
       <use xlink:href="#DejaVuSans-65" x="52.099609"/>
       <use xlink:href="#DejaVuSans-70" x="113.623047"/>
       <use xlink:href="#DejaVuSans-74" x="177.099609"/>
       <use xlink:href="#DejaVuSans-65" x="216.308594"/>
       <use xlink:href="#DejaVuSans-6d" x="277.832031"/>
       <use xlink:href="#DejaVuSans-62" x="375.244141"/>
       <use xlink:href="#DejaVuSans-65" x="438.720703"/>
       <use xlink:href="#DejaVuSans-72" x="500.244141"/>
       <use xlink:href="#DejaVuSans-5f" x="541.357422"/>
       <use xlink:href="#DejaVuSans-32" x="591.357422"/>
       <use xlink:href="#DejaVuSans-30" x="654.980469"/>
       <use xlink:href="#DejaVuSans-32" x="718.603516"/>
       <use xlink:href="#DejaVuSans-33" x="782.226562"/>
      </g>
     </g>
    </g>
    <g id="xtick_3">
     <g id="line2d_5">
      <path d="M 321.098998 703.54351 
L 321.098998 20.61447 
" clip-path="url(#pf57410f6de)" style="fill: none; stroke: #b0b0b0; stroke-width: 0.8; stroke-linecap: square"/>
     </g>
     <g id="line2d_6"/>
     <g id="text_3">
      <!-- october_2023 -->
      <g transform="translate(286.739623 714.641948)scale(0.1 -0.1)">
       <defs>
        <path id="DejaVuSans-6f" d="M 1959 3097 
Q 1497 3097 1228 2736 
Q 959 2375 959 1747 
Q 959 1119 1226 758 
Q 1494 397 1959 397 
Q 2419 397 2687 759 
Q 2956 1122 2956 1747 
Q 2956 2369 2687 2733 
Q 2419 3097 1959 3097 
z
M 1959 3584 
Q 2709 3584 3137 3096 
Q 3566 2609 3566 1747 
Q 3566 888 3137 398 
Q 2709 -91 1959 -91 
Q 1206 -91 779 398 
Q 353 888 353 1747 
Q 353 2609 779 3096 
Q 1206 3584 1959 3584 
z
" transform="scale(0.015625)"/>
        <path id="DejaVuSans-63" d="M 3122 3366 
L 3122 2828 
Q 2878 2963 2633 3030 
Q 2388 3097 2138 3097 
Q 1578 3097 1268 2742 
Q 959 2388 959 1747 
Q 959 1106 1268 751 
Q 1578 397 2138 397 
Q 2388 397 2633 464 
Q 2878 531 3122 666 
L 3122 134 
Q 2881 22 2623 -34 
Q 2366 -91 2075 -91 
Q 1284 -91 818 406 
Q 353 903 353 1747 
Q 353 2603 823 3093 
Q 1294 3584 2113 3584 
Q 2378 3584 2631 3529 
Q 2884 3475 3122 3366 
z
" transform="scale(0.015625)"/>
       </defs>
       <use xlink:href="#DejaVuSans-6f"/>
       <use xlink:href="#DejaVuSans-63" x="61.181641"/>
       <use xlink:href="#DejaVuSans-74" x="116.162109"/>
       <use xlink:href="#DejaVuSans-6f" x="155.371094"/>
       <use xlink:href="#DejaVuSans-62" x="216.552734"/>
       <use xlink:href="#DejaVuSans-65" x="280.029297"/>
       <use xlink:href="#DejaVuSans-72" x="341.552734"/>
       <use xlink:href="#DejaVuSans-5f" x="382.666016"/>
       <use xlink:href="#DejaVuSans-32" x="432.666016"/>
       <use xlink:href="#DejaVuSans-30" x="496.289062"/>
       <use xlink:href="#DejaVuSans-32" x="559.912109"/>
       <use xlink:href="#DejaVuSans-33" x="623.535156"/>
      </g>
     </g>
    </g>
    <g id="xtick_4">
     <g id="line2d_7">
      <path d="M 434.213502 703.54351 
L 434.213502 20.61447 
" clip-path="url(#pf57410f6de)" style="fill: none; stroke: #b0b0b0; stroke-width: 0.8; stroke-linecap: square"/>
     </g>
     <g id="line2d_8"/>
     <g id="text_4">
      <!-- november_2023 -->
      <g transform="translate(393.547877 714.641948)scale(0.1 -0.1)">
       <defs>
        <path id="DejaVuSans-6e" d="M 3513 2113 
L 3513 0 
L 2938 0 
L 2938 2094 
Q 2938 2591 2744 2837 
Q 2550 3084 2163 3084 
Q 1697 3084 1428 2787 
Q 1159 2491 1159 1978 
L 1159 0 
L 581 0 
L 581 3500 
L 1159 3500 
L 1159 2956 
Q 1366 3272 1645 3428 
Q 1925 3584 2291 3584 
Q 2894 3584 3203 3211 
Q 3513 2838 3513 2113 
z
" transform="scale(0.015625)"/>
        <path id="DejaVuSans-76" d="M 191 3500 
L 800 3500 
L 1894 563 
L 2988 3500 
L 3597 3500 
L 2284 0 
L 1503 0 
L 191 3500 
z
" transform="scale(0.015625)"/>
       </defs>
       <use xlink:href="#DejaVuSans-6e"/>
       <use xlink:href="#DejaVuSans-6f" x="63.378906"/>
       <use xlink:href="#DejaVuSans-76" x="124.560547"/>
       <use xlink:href="#DejaVuSans-65" x="183.740234"/>
       <use xlink:href="#DejaVuSans-6d" x="245.263672"/>
       <use xlink:href="#DejaVuSans-62" x="342.675781"/>
       <use xlink:href="#DejaVuSans-65" x="406.152344"/>
       <use xlink:href="#DejaVuSans-72" x="467.675781"/>
       <use xlink:href="#DejaVuSans-5f" x="508.789062"/>
       <use xlink:href="#DejaVuSans-32" x="558.789062"/>
       <use xlink:href="#DejaVuSans-30" x="622.412109"/>
       <use xlink:href="#DejaVuSans-32" x="686.035156"/>
       <use xlink:href="#DejaVuSans-33" x="749.658203"/>
      </g>
     </g>
    </g>
    <g id="xtick_5">
     <g id="line2d_9">
      <path d="M 547.328005 703.54351 
L 547.328005 20.61447 
" clip-path="url(#pf57410f6de)" style="fill: none; stroke: #b0b0b0; stroke-width: 0.8; stroke-linecap: square"/>
     </g>
     <g id="line2d_10"/>
     <g id="text_5">
      <!-- december_2023 -->
      <g transform="translate(506.84988 714.641948)scale(0.1 -0.1)">
       <defs>
        <path id="DejaVuSans-64" d="M 2906 2969 
L 2906 4863 
L 3481 4863 
L 3481 0 
L 2906 0 
L 2906 525 
Q 2725 213 2448 61 
Q 2172 -91 1784 -91 
Q 1150 -91 751 415 
Q 353 922 353 1747 
Q 353 2572 751 3078 
Q 1150 3584 1784 3584 
Q 2172 3584 2448 3432 
Q 2725 3281 2906 2969 
z
M 947 1747 
Q 947 1113 1208 752 
Q 1469 391 1925 391 
Q 2381 391 2643 752 
Q 2906 1113 2906 1747 
Q 2906 2381 2643 2742 
Q 2381 3103 1925 3103 
Q 1469 3103 1208 2742 
Q 947 2381 947 1747 
z
" transform="scale(0.015625)"/>
       </defs>
       <use xlink:href="#DejaVuSans-64"/>
       <use xlink:href="#DejaVuSans-65" x="63.476562"/>
       <use xlink:href="#DejaVuSans-63" x="125"/>
       <use xlink:href="#DejaVuSans-65" x="179.980469"/>
       <use xlink:href="#DejaVuSans-6d" x="241.503906"/>
       <use xlink:href="#DejaVuSans-62" x="338.916016"/>
       <use xlink:href="#DejaVuSans-65" x="402.392578"/>
       <use xlink:href="#DejaVuSans-72" x="463.916016"/>
       <use xlink:href="#DejaVuSans-5f" x="505.029297"/>
       <use xlink:href="#DejaVuSans-32" x="555.029297"/>
       <use xlink:href="#DejaVuSans-30" x="618.652344"/>
       <use xlink:href="#DejaVuSans-32" x="682.275391"/>
       <use xlink:href="#DejaVuSans-33" x="745.898438"/>
      </g>
     </g>
    </g>
    <g id="xtick_6">
     <g id="line2d_11">
      <path d="M 660.442508 703.54351 
L 660.442508 20.61447 
" clip-path="url(#pf57410f6de)" style="fill: none; stroke: #b0b0b0; stroke-width: 0.8; stroke-linecap: square"/>
     </g>
     <g id="line2d_12"/>
     <g id="text_6">
      <!-- january_2024 -->
      <g transform="translate(626.347977 714.641948)scale(0.1 -0.1)">
       <defs>
        <path id="DejaVuSans-6a" d="M 603 3500 
L 1178 3500 
L 1178 -63 
Q 1178 -731 923 -1031 
Q 669 -1331 103 -1331 
L -116 -1331 
L -116 -844 
L 38 -844 
Q 366 -844 484 -692 
Q 603 -541 603 -63 
L 603 3500 
z
M 603 4863 
L 1178 4863 
L 1178 4134 
L 603 4134 
L 603 4863 
z
" transform="scale(0.015625)"/>
        <path id="DejaVuSans-75" d="M 544 1381 
L 544 3500 
L 1119 3500 
L 1119 1403 
Q 1119 906 1312 657 
Q 1506 409 1894 409 
Q 2359 409 2629 706 
Q 2900 1003 2900 1516 
L 2900 3500 
L 3475 3500 
L 3475 0 
L 2900 0 
L 2900 538 
Q 2691 219 2414 64 
Q 2138 -91 1772 -91 
Q 1169 -91 856 284 
Q 544 659 544 1381 
z
M 1991 3584 
L 1991 3584 
z
" transform="scale(0.015625)"/>
        <path id="DejaVuSans-79" d="M 2059 -325 
Q 1816 -950 1584 -1140 
Q 1353 -1331 966 -1331 
L 506 -1331 
L 506 -850 
L 844 -850 
Q 1081 -850 1212 -737 
Q 1344 -625 1503 -206 
L 1606 56 
L 191 3500 
L 800 3500 
L 1894 763 
L 2988 3500 
L 3597 3500 
L 2059 -325 
z
" transform="scale(0.015625)"/>
        <path id="DejaVuSans-34" d="M 2419 4116 
L 825 1625 
L 2419 1625 
L 2419 4116 
z
M 2253 4666 
L 3047 4666 
L 3047 1625 
L 3713 1625 
L 3713 1100 
L 3047 1100 
L 3047 0 
L 2419 0 
L 2419 1100 
L 313 1100 
L 313 1709 
L 2253 4666 
z
" transform="scale(0.015625)"/>
       </defs>
       <use xlink:href="#DejaVuSans-6a"/>
       <use xlink:href="#DejaVuSans-61" x="27.783203"/>
       <use xlink:href="#DejaVuSans-6e" x="89.0625"/>
       <use xlink:href="#DejaVuSans-75" x="152.441406"/>
       <use xlink:href="#DejaVuSans-61" x="215.820312"/>
       <use xlink:href="#DejaVuSans-72" x="277.099609"/>
       <use xlink:href="#DejaVuSans-79" x="318.212891"/>
       <use xlink:href="#DejaVuSans-5f" x="377.392578"/>
       <use xlink:href="#DejaVuSans-32" x="427.392578"/>
       <use xlink:href="#DejaVuSans-30" x="491.015625"/>
       <use xlink:href="#DejaVuSans-32" x="554.638672"/>
       <use xlink:href="#DejaVuSans-34" x="618.261719"/>
      </g>
     </g>
    </g>
   </g>
   <g id="matplotlib.axis_2">
    <g id="ytick_1">
     <g id="line2d_13">
      <path d="M 38.31274 673.019105 
L 716.99976 673.019105 
" clip-path="url(#pf57410f6de)" style="fill: none; stroke: #b0b0b0; stroke-width: 0.8; stroke-linecap: square"/>
     </g>
     <g id="line2d_14"/>
     <g id="text_7">
      <!-- 0 -->
      <g transform="translate(28.45024 676.818323)scale(0.1 -0.1)">
       <use xlink:href="#DejaVuSans-30"/>
      </g>
     </g>
    </g>
    <g id="ytick_2">
     <g id="line2d_15">
      <path d="M 38.31274 531.520735 
L 716.99976 531.520735 
" clip-path="url(#pf57410f6de)" style="fill: none; stroke: #b0b0b0; stroke-width: 0.8; stroke-linecap: square"/>
     </g>
     <g id="line2d_16"/>
     <g id="text_8">
      <!-- 5000 -->
      <g transform="translate(9.36274 535.319954)scale(0.1 -0.1)">
       <defs>
        <path id="DejaVuSans-35" d="M 691 4666 
L 3169 4666 
L 3169 4134 
L 1269 4134 
L 1269 2991 
Q 1406 3038 1543 3061 
Q 1681 3084 1819 3084 
Q 2600 3084 3056 2656 
Q 3513 2228 3513 1497 
Q 3513 744 3044 326 
Q 2575 -91 1722 -91 
Q 1428 -91 1123 -41 
Q 819 9 494 109 
L 494 744 
Q 775 591 1075 516 
Q 1375 441 1709 441 
Q 2250 441 2565 725 
Q 2881 1009 2881 1497 
Q 2881 1984 2565 2268 
Q 2250 2553 1709 2553 
Q 1456 2553 1204 2497 
Q 953 2441 691 2322 
L 691 4666 
z
" transform="scale(0.015625)"/>
       </defs>
       <use xlink:href="#DejaVuSans-35"/>
       <use xlink:href="#DejaVuSans-30" x="63.623047"/>
       <use xlink:href="#DejaVuSans-30" x="127.246094"/>
       <use xlink:href="#DejaVuSans-30" x="190.869141"/>
      </g>
     </g>
    </g>
    <g id="ytick_3">
     <g id="line2d_17">
      <path d="M 38.31274 390.022366 
L 716.99976 390.022366 
" clip-path="url(#pf57410f6de)" style="fill: none; stroke: #b0b0b0; stroke-width: 0.8; stroke-linecap: square"/>
     </g>
     <g id="line2d_18"/>
     <g id="text_9">
      <!-- 10000 -->
      <g transform="translate(3.00024 393.821584)scale(0.1 -0.1)">
       <defs>
        <path id="DejaVuSans-31" d="M 794 531 
L 1825 531 
L 1825 4091 
L 703 3866 
L 703 4441 
L 1819 4666 
L 2450 4666 
L 2450 531 
L 3481 531 
L 3481 0 
L 794 0 
L 794 531 
z
" transform="scale(0.015625)"/>
       </defs>
       <use xlink:href="#DejaVuSans-31"/>
       <use xlink:href="#DejaVuSans-30" x="63.623047"/>
       <use xlink:href="#DejaVuSans-30" x="127.246094"/>
       <use xlink:href="#DejaVuSans-30" x="190.869141"/>
       <use xlink:href="#DejaVuSans-30" x="254.492188"/>
      </g>
     </g>
    </g>
    <g id="ytick_4">
     <g id="line2d_19">
      <path d="M 38.31274 248.523996 
L 716.99976 248.523996 
" clip-path="url(#pf57410f6de)" style="fill: none; stroke: #b0b0b0; stroke-width: 0.8; stroke-linecap: square"/>
     </g>
     <g id="line2d_20"/>
     <g id="text_10">
      <!-- 15000 -->
      <g transform="translate(3.00024 252.323215)scale(0.1 -0.1)">
       <use xlink:href="#DejaVuSans-31"/>
       <use xlink:href="#DejaVuSans-35" x="63.623047"/>
       <use xlink:href="#DejaVuSans-30" x="127.246094"/>
       <use xlink:href="#DejaVuSans-30" x="190.869141"/>
       <use xlink:href="#DejaVuSans-30" x="254.492188"/>
      </g>
     </g>
    </g>
    <g id="ytick_5">
     <g id="line2d_21">
      <path d="M 38.31274 107.025626 
L 716.99976 107.025626 
" clip-path="url(#pf57410f6de)" style="fill: none; stroke: #b0b0b0; stroke-width: 0.8; stroke-linecap: square"/>
     </g>
     <g id="line2d_22"/>
     <g id="text_11">
      <!-- 20000 -->
      <g transform="translate(3.00024 110.824845)scale(0.1 -0.1)">
       <use xlink:href="#DejaVuSans-32"/>
       <use xlink:href="#DejaVuSans-30" x="63.623047"/>
       <use xlink:href="#DejaVuSans-30" x="127.246094"/>
       <use xlink:href="#DejaVuSans-30" x="190.869141"/>
       <use xlink:href="#DejaVuSans-30" x="254.492188"/>
      </g>
     </g>
    </g>
   </g>
   <g id="line2d_23">
    <path d="M 66.591366 503.221061 
L 123.148617 503.221061 
L 123.148617 398.512268 
L 66.591366 398.512268 
L 66.591366 503.221061 
" clip-path="url(#pf57410f6de)" style="fill: none; stroke: #000000; stroke-linecap: square"/>
   </g>
   <g id="line2d_24">
    <path d="M 94.869992 503.221061 
L 94.869992 614.061451 
" clip-path="url(#pf57410f6de)" style="fill: none; stroke: #000000; stroke-linecap: square"/>
   </g>
   <g id="line2d_25">
    <path d="M 94.869992 398.512268 
L 94.869992 248.523996 
" clip-path="url(#pf57410f6de)" style="fill: none; stroke: #000000; stroke-linecap: square"/>
   </g>
   <g id="line2d_26">
    <path d="M 80.730679 614.061451 
L 109.009305 614.061451 
" clip-path="url(#pf57410f6de)" style="fill: none; stroke: #000000; stroke-linecap: square"/>
   </g>
   <g id="line2d_27">
    <path d="M 80.730679 248.523996 
L 109.009305 248.523996 
" clip-path="url(#pf57410f6de)" style="fill: none; stroke: #000000; stroke-linecap: square"/>
   </g>
   <g id="line2d_28">
    <defs>
     <path id="m6e261d104a" d="M 0 3 
C 0.795609 3 1.55874 2.683901 2.12132 2.12132 
C 2.683901 1.55874 3 0.795609 3 0 
C 3 -0.795609 2.683901 -1.55874 2.12132 -2.12132 
C 1.55874 -2.683901 0.795609 -3 0 -3 
C -0.795609 -3 -1.55874 -2.683901 -2.12132 -2.12132 
C -2.683901 -1.55874 -3 -0.795609 -3 0 
C -3 0.795609 -2.683901 1.55874 -2.12132 2.12132 
C -1.55874 2.683901 -0.795609 3 0 3 
z
" style="stroke: #000000"/>
    </defs>
    <g clip-path="url(#pf57410f6de)">
     <use xlink:href="#m6e261d104a" x="94.869992" y="233.808165" style="fill-opacity: 0; stroke: #000000"/>
     <use xlink:href="#m6e261d104a" x="94.869992" y="135.3253" style="fill-opacity: 0; stroke: #000000"/>
     <use xlink:href="#m6e261d104a" x="94.869992" y="197.207254" style="fill-opacity: 0; stroke: #000000"/>
     <use xlink:href="#m6e261d104a" x="94.869992" y="191.428163" style="fill-opacity: 0; stroke: #000000"/>
     <use xlink:href="#m6e261d104a" x="94.869992" y="230.8367" style="fill-opacity: 0; stroke: #000000"/>
     <use xlink:href="#m6e261d104a" x="94.869992" y="202.435956" style="fill-opacity: 0; stroke: #000000"/>
     <use xlink:href="#m6e261d104a" x="94.869992" y="213.37975" style="fill-opacity: 0; stroke: #000000"/>
     <use xlink:href="#m6e261d104a" x="94.869992" y="190.958318" style="fill-opacity: 0; stroke: #000000"/>
     <use xlink:href="#m6e261d104a" x="94.869992" y="142.400219" style="fill-opacity: 0; stroke: #000000"/>
     <use xlink:href="#m6e261d104a" x="94.869992" y="189.887072" style="fill-opacity: 0; stroke: #000000"/>
    </g>
   </g>
   <g id="line2d_29">
    <path d="M 179.705869 526.641481 
L 236.263121 526.641481 
L 236.263121 427.192086 
L 179.705869 427.192086 
L 179.705869 526.641481 
" clip-path="url(#pf57410f6de)" style="fill: none; stroke: #000000; stroke-linecap: square"/>
   </g>
   <g id="line2d_30">
    <path d="M 207.984495 526.641481 
L 207.984495 664.695671 
" clip-path="url(#pf57410f6de)" style="fill: none; stroke: #000000; stroke-linecap: square"/>
   </g>
   <g id="line2d_31">
    <path d="M 207.984495 427.192086 
L 207.984495 280.86648 
" clip-path="url(#pf57410f6de)" style="fill: none; stroke: #000000; stroke-linecap: square"/>
   </g>
   <g id="line2d_32">
    <path d="M 193.845182 664.695671 
L 222.123808 664.695671 
" clip-path="url(#pf57410f6de)" style="fill: none; stroke: #000000; stroke-linecap: square"/>
   </g>
   <g id="line2d_33">
    <path d="M 193.845182 280.86648 
L 222.123808 280.86648 
" clip-path="url(#pf57410f6de)" style="fill: none; stroke: #000000; stroke-linecap: square"/>
   </g>
   <g id="line2d_34">
    <g clip-path="url(#pf57410f6de)">
     <use xlink:href="#m6e261d104a" x="207.984495" y="257.957221" style="fill-opacity: 0; stroke: #000000"/>
     <use xlink:href="#m6e261d104a" x="207.984495" y="183.217056" style="fill-opacity: 0; stroke: #000000"/>
     <use xlink:href="#m6e261d104a" x="207.984495" y="223.007896" style="fill-opacity: 0; stroke: #000000"/>
     <use xlink:href="#m6e261d104a" x="207.984495" y="252.497993" style="fill-opacity: 0; stroke: #000000"/>
     <use xlink:href="#m6e261d104a" x="207.984495" y="222.546347" style="fill-opacity: 0; stroke: #000000"/>
     <use xlink:href="#m6e261d104a" x="207.984495" y="223.007896" style="fill-opacity: 0; stroke: #000000"/>
     <use xlink:href="#m6e261d104a" x="207.984495" y="213.37975" style="fill-opacity: 0; stroke: #000000"/>
     <use xlink:href="#m6e261d104a" x="207.984495" y="232.801955" style="fill-opacity: 0; stroke: #000000"/>
     <use xlink:href="#m6e261d104a" x="207.984495" y="215.50771" style="fill-opacity: 0; stroke: #000000"/>
     <use xlink:href="#m6e261d104a" x="207.984495" y="272.387505" style="fill-opacity: 0; stroke: #000000"/>
     <use xlink:href="#m6e261d104a" x="207.984495" y="261.258849" style="fill-opacity: 0; stroke: #000000"/>
     <use xlink:href="#m6e261d104a" x="207.984495" y="179.189795" style="fill-opacity: 0; stroke: #000000"/>
     <use xlink:href="#m6e261d104a" x="207.984495" y="261.258849" style="fill-opacity: 0; stroke: #000000"/>
    </g>
   </g>
   <g id="line2d_35">
    <path d="M 292.820372 503.221061 
L 349.377624 503.221061 
L 349.377624 415.749342 
L 292.820372 415.749342 
L 292.820372 503.221061 
" clip-path="url(#pf57410f6de)" style="fill: none; stroke: #000000; stroke-linecap: square"/>
   </g>
   <g id="line2d_36">
    <path d="M 321.098998 503.221061 
L 321.098998 632.590999 
" clip-path="url(#pf57410f6de)" style="fill: none; stroke: #000000; stroke-linecap: square"/>
   </g>
   <g id="line2d_37">
    <path d="M 321.098998 415.749342 
L 321.098998 288.709533 
" clip-path="url(#pf57410f6de)" style="fill: none; stroke: #000000; stroke-linecap: square"/>
   </g>
   <g id="line2d_38">
    <path d="M 306.959685 632.590999 
L 335.238311 632.590999 
" clip-path="url(#pf57410f6de)" style="fill: none; stroke: #000000; stroke-linecap: square"/>
   </g>
   <g id="line2d_39">
    <path d="M 306.959685 288.709533 
L 335.238311 288.709533 
" clip-path="url(#pf57410f6de)" style="fill: none; stroke: #000000; stroke-linecap: square"/>
   </g>
   <g id="line2d_40">
    <g clip-path="url(#pf57410f6de)">
     <use xlink:href="#m6e261d104a" x="321.098998" y="663.767288" style="fill-opacity: 0; stroke: #000000"/>
     <use xlink:href="#m6e261d104a" x="321.098998" y="641.575023" style="fill-opacity: 0; stroke: #000000"/>
     <use xlink:href="#m6e261d104a" x="321.098998" y="656.847862" style="fill-opacity: 0; stroke: #000000"/>
     <use xlink:href="#m6e261d104a" x="321.098998" y="232.801955" style="fill-opacity: 0; stroke: #000000"/>
     <use xlink:href="#m6e261d104a" x="321.098998" y="261.258849" style="fill-opacity: 0; stroke: #000000"/>
     <use xlink:href="#m6e261d104a" x="321.098998" y="179.189795" style="fill-opacity: 0; stroke: #000000"/>
     <use xlink:href="#m6e261d104a" x="321.098998" y="206.357482" style="fill-opacity: 0; stroke: #000000"/>
     <use xlink:href="#m6e261d104a" x="321.098998" y="261.258849" style="fill-opacity: 0; stroke: #000000"/>
     <use xlink:href="#m6e261d104a" x="321.098998" y="270.409077" style="fill-opacity: 0; stroke: #000000"/>
     <use xlink:href="#m6e261d104a" x="321.098998" y="183.217056" style="fill-opacity: 0; stroke: #000000"/>
     <use xlink:href="#m6e261d104a" x="321.098998" y="261.258849" style="fill-opacity: 0; stroke: #000000"/>
     <use xlink:href="#m6e261d104a" x="321.098998" y="202.435956" style="fill-opacity: 0; stroke: #000000"/>
     <use xlink:href="#m6e261d104a" x="321.098998" y="261.258849" style="fill-opacity: 0; stroke: #000000"/>
     <use xlink:href="#m6e261d104a" x="321.098998" y="248.523996" style="fill-opacity: 0; stroke: #000000"/>
     <use xlink:href="#m6e261d104a" x="321.098998" y="124.005431" style="fill-opacity: 0; stroke: #000000"/>
     <use xlink:href="#m6e261d104a" x="321.098998" y="270.409077" style="fill-opacity: 0; stroke: #000000"/>
     <use xlink:href="#m6e261d104a" x="321.098998" y="233.808165" style="fill-opacity: 0; stroke: #000000"/>
    </g>
   </g>
   <g id="line2d_41">
    <path d="M 405.934876 503.221061 
L 462.492127 503.221061 
L 462.492127 423.135028 
L 405.934876 423.135028 
L 405.934876 503.221061 
" clip-path="url(#pf57410f6de)" style="fill: none; stroke: #000000; stroke-linecap: square"/>
   </g>
   <g id="line2d_42">
    <path d="M 434.213502 503.221061 
L 434.213502 609.344838 
" clip-path="url(#pf57410f6de)" style="fill: none; stroke: #000000; stroke-linecap: square"/>
   </g>
   <g id="line2d_43">
    <path d="M 434.213502 423.135028 
L 434.213502 307.009989 
" clip-path="url(#pf57410f6de)" style="fill: none; stroke: #000000; stroke-linecap: square"/>
   </g>
   <g id="line2d_44">
    <path d="M 420.074189 609.344838 
L 448.352815 609.344838 
" clip-path="url(#pf57410f6de)" style="fill: none; stroke: #000000; stroke-linecap: square"/>
   </g>
   <g id="line2d_45">
    <path d="M 420.074189 307.009989 
L 448.352815 307.009989 
" clip-path="url(#pf57410f6de)" style="fill: none; stroke: #000000; stroke-linecap: square"/>
   </g>
   <g id="line2d_46">
    <g clip-path="url(#pf57410f6de)">
     <use xlink:href="#m6e261d104a" x="434.213502" y="672.264447" style="fill-opacity: 0; stroke: #000000"/>
     <use xlink:href="#m6e261d104a" x="434.213502" y="656.847862" style="fill-opacity: 0; stroke: #000000"/>
     <use xlink:href="#m6e261d104a" x="434.213502" y="639.059496" style="fill-opacity: 0; stroke: #000000"/>
     <use xlink:href="#m6e261d104a" x="434.213502" y="641.575023" style="fill-opacity: 0; stroke: #000000"/>
     <use xlink:href="#m6e261d104a" x="434.213502" y="632.590999" style="fill-opacity: 0; stroke: #000000"/>
     <use xlink:href="#m6e261d104a" x="434.213502" y="261.258849" style="fill-opacity: 0; stroke: #000000"/>
     <use xlink:href="#m6e261d104a" x="434.213502" y="248.523996" style="fill-opacity: 0; stroke: #000000"/>
     <use xlink:href="#m6e261d104a" x="434.213502" y="233.808165" style="fill-opacity: 0; stroke: #000000"/>
     <use xlink:href="#m6e261d104a" x="434.213502" y="288.709533" style="fill-opacity: 0; stroke: #000000"/>
     <use xlink:href="#m6e261d104a" x="434.213502" y="183.217056" style="fill-opacity: 0; stroke: #000000"/>
     <use xlink:href="#m6e261d104a" x="434.213502" y="270.409077" style="fill-opacity: 0; stroke: #000000"/>
     <use xlink:href="#m6e261d104a" x="434.213502" y="295.690119" style="fill-opacity: 0; stroke: #000000"/>
     <use xlink:href="#m6e261d104a" x="434.213502" y="288.709533" style="fill-opacity: 0; stroke: #000000"/>
     <use xlink:href="#m6e261d104a" x="434.213502" y="206.357482" style="fill-opacity: 0; stroke: #000000"/>
     <use xlink:href="#m6e261d104a" x="434.213502" y="261.258849" style="fill-opacity: 0; stroke: #000000"/>
     <use xlink:href="#m6e261d104a" x="434.213502" y="179.189795" style="fill-opacity: 0; stroke: #000000"/>
     <use xlink:href="#m6e261d104a" x="434.213502" y="289.604168" style="fill-opacity: 0; stroke: #000000"/>
     <use xlink:href="#m6e261d104a" x="434.213502" y="261.258849" style="fill-opacity: 0; stroke: #000000"/>
     <use xlink:href="#m6e261d104a" x="434.213502" y="261.258849" style="fill-opacity: 0; stroke: #000000"/>
     <use xlink:href="#m6e261d104a" x="434.213502" y="232.801955" style="fill-opacity: 0; stroke: #000000"/>
     <use xlink:href="#m6e261d104a" x="434.213502" y="202.435956" style="fill-opacity: 0; stroke: #000000"/>
    </g>
   </g>
   <g id="line2d_47">
    <path d="M 519.049379 520.636245 
L 575.606631 520.636245 
L 575.606631 438.163621 
L 519.049379 438.163621 
L 519.049379 520.636245 
" clip-path="url(#pf57410f6de)" style="fill: none; stroke: #000000; stroke-linecap: square"/>
   </g>
   <g id="line2d_48">
    <path d="M 547.328005 520.636245 
L 547.328005 641.575023 
" clip-path="url(#pf57410f6de)" style="fill: none; stroke: #000000; stroke-linecap: square"/>
   </g>
   <g id="line2d_49">
    <path d="M 547.328005 438.163621 
L 547.328005 321.087262 
" clip-path="url(#pf57410f6de)" style="fill: none; stroke: #000000; stroke-linecap: square"/>
   </g>
   <g id="line2d_50">
    <path d="M 533.188692 641.575023 
L 561.467318 641.575023 
" clip-path="url(#pf57410f6de)" style="fill: none; stroke: #000000; stroke-linecap: square"/>
   </g>
   <g id="line2d_51">
    <path d="M 533.188692 321.087262 
L 561.467318 321.087262 
" clip-path="url(#pf57410f6de)" style="fill: none; stroke: #000000; stroke-linecap: square"/>
   </g>
   <g id="line2d_52">
    <g clip-path="url(#pf57410f6de)">
     <use xlink:href="#m6e261d104a" x="547.328005" y="656.847862" style="fill-opacity: 0; stroke: #000000"/>
     <use xlink:href="#m6e261d104a" x="547.328005" y="659.59877" style="fill-opacity: 0; stroke: #000000"/>
     <use xlink:href="#m6e261d104a" x="547.328005" y="313.795824" style="fill-opacity: 0; stroke: #000000"/>
     <use xlink:href="#m6e261d104a" x="547.328005" y="249.93898" style="fill-opacity: 0; stroke: #000000"/>
     <use xlink:href="#m6e261d104a" x="547.328005" y="297.37817" style="fill-opacity: 0; stroke: #000000"/>
     <use xlink:href="#m6e261d104a" x="547.328005" y="261.258849" style="fill-opacity: 0; stroke: #000000"/>
     <use xlink:href="#m6e261d104a" x="547.328005" y="282.609381" style="fill-opacity: 0; stroke: #000000"/>
     <use xlink:href="#m6e261d104a" x="547.328005" y="277.729259" style="fill-opacity: 0; stroke: #000000"/>
     <use xlink:href="#m6e261d104a" x="547.328005" y="295.690119" style="fill-opacity: 0; stroke: #000000"/>
     <use xlink:href="#m6e261d104a" x="547.328005" y="270.409077" style="fill-opacity: 0; stroke: #000000"/>
     <use xlink:href="#m6e261d104a" x="547.328005" y="277.729259" style="fill-opacity: 0; stroke: #000000"/>
     <use xlink:href="#m6e261d104a" x="547.328005" y="309.166154" style="fill-opacity: 0; stroke: #000000"/>
     <use xlink:href="#m6e261d104a" x="547.328005" y="288.709533" style="fill-opacity: 0; stroke: #000000"/>
     <use xlink:href="#m6e261d104a" x="547.328005" y="206.357482" style="fill-opacity: 0; stroke: #000000"/>
     <use xlink:href="#m6e261d104a" x="547.328005" y="287.746351" style="fill-opacity: 0; stroke: #000000"/>
     <use xlink:href="#m6e261d104a" x="547.328005" y="237.639506" style="fill-opacity: 0; stroke: #000000"/>
     <use xlink:href="#m6e261d104a" x="547.328005" y="202.435956" style="fill-opacity: 0; stroke: #000000"/>
     <use xlink:href="#m6e261d104a" x="547.328005" y="261.258849" style="fill-opacity: 0; stroke: #000000"/>
     <use xlink:href="#m6e261d104a" x="547.328005" y="307.009989" style="fill-opacity: 0; stroke: #000000"/>
     <use xlink:href="#m6e261d104a" x="547.328005" y="307.009989" style="fill-opacity: 0; stroke: #000000"/>
    </g>
   </g>
   <g id="line2d_53">
    <path d="M 632.163882 522.08751 
L 688.721134 522.08751 
L 688.721134 441.476318 
L 632.163882 441.476318 
L 632.163882 522.08751 
" clip-path="url(#pf57410f6de)" style="fill: none; stroke: #000000; stroke-linecap: square"/>
   </g>
   <g id="line2d_54">
    <path d="M 660.442508 522.08751 
L 660.442508 641.575023 
" clip-path="url(#pf57410f6de)" style="fill: none; stroke: #000000; stroke-linecap: square"/>
   </g>
   <g id="line2d_55">
    <path d="M 660.442508 441.476318 
L 660.442508 321.232389 
" clip-path="url(#pf57410f6de)" style="fill: none; stroke: #000000; stroke-linecap: square"/>
   </g>
   <g id="line2d_56">
    <path d="M 646.303195 641.575023 
L 674.581821 641.575023 
" clip-path="url(#pf57410f6de)" style="fill: none; stroke: #000000; stroke-linecap: square"/>
   </g>
   <g id="line2d_57">
    <path d="M 646.303195 321.232389 
L 674.581821 321.232389 
" clip-path="url(#pf57410f6de)" style="fill: none; stroke: #000000; stroke-linecap: square"/>
   </g>
   <g id="line2d_58">
    <g clip-path="url(#pf57410f6de)">
     <use xlink:href="#m6e261d104a" x="660.442508" y="656.847862" style="fill-opacity: 0; stroke: #000000"/>
     <use xlink:href="#m6e261d104a" x="660.442508" y="672.501281" style="fill-opacity: 0; stroke: #000000"/>
     <use xlink:href="#m6e261d104a" x="660.442508" y="657.297064" style="fill-opacity: 0; stroke: #000000"/>
     <use xlink:href="#m6e261d104a" x="660.442508" y="290.591079" style="fill-opacity: 0; stroke: #000000"/>
     <use xlink:href="#m6e261d104a" x="660.442508" y="281.887822" style="fill-opacity: 0; stroke: #000000"/>
     <use xlink:href="#m6e261d104a" x="660.442508" y="51.656699" style="fill-opacity: 0; stroke: #000000"/>
     <use xlink:href="#m6e261d104a" x="660.442508" y="291.916829" style="fill-opacity: 0; stroke: #000000"/>
     <use xlink:href="#m6e261d104a" x="660.442508" y="264.695238" style="fill-opacity: 0; stroke: #000000"/>
     <use xlink:href="#m6e261d104a" x="660.442508" y="295.690119" style="fill-opacity: 0; stroke: #000000"/>
     <use xlink:href="#m6e261d104a" x="660.442508" y="309.166154" style="fill-opacity: 0; stroke: #000000"/>
     <use xlink:href="#m6e261d104a" x="660.442508" y="266.510011" style="fill-opacity: 0; stroke: #000000"/>
     <use xlink:href="#m6e261d104a" x="660.442508" y="306.574609" style="fill-opacity: 0; stroke: #000000"/>
     <use xlink:href="#m6e261d104a" x="660.442508" y="301.444386" style="fill-opacity: 0; stroke: #000000"/>
     <use xlink:href="#m6e261d104a" x="660.442508" y="301.444386" style="fill-opacity: 0; stroke: #000000"/>
     <use xlink:href="#m6e261d104a" x="660.442508" y="291.916829" style="fill-opacity: 0; stroke: #000000"/>
     <use xlink:href="#m6e261d104a" x="660.442508" y="301.444386" style="fill-opacity: 0; stroke: #000000"/>
     <use xlink:href="#m6e261d104a" x="660.442508" y="269.748751" style="fill-opacity: 0; stroke: #000000"/>
     <use xlink:href="#m6e261d104a" x="660.442508" y="292.061956" style="fill-opacity: 0; stroke: #000000"/>
     <use xlink:href="#m6e261d104a" x="660.442508" y="317.323648" style="fill-opacity: 0; stroke: #000000"/>
     <use xlink:href="#m6e261d104a" x="660.442508" y="311.974844" style="fill-opacity: 0; stroke: #000000"/>
     <use xlink:href="#m6e261d104a" x="660.442508" y="284.294784" style="fill-opacity: 0; stroke: #000000"/>
     <use xlink:href="#m6e261d104a" x="660.442508" y="183.030465" style="fill-opacity: 0; stroke: #000000"/>
     <use xlink:href="#m6e261d104a" x="660.442508" y="249.93898" style="fill-opacity: 0; stroke: #000000"/>
    </g>
   </g>
   <g id="line2d_59">
    <path d="M 66.591366 457.335161 
L 123.148617 457.335161 
" clip-path="url(#pf57410f6de)" style="fill: none; stroke: #ff7f0e; stroke-linecap: square"/>
   </g>
   <g id="line2d_60">
    <path d="M 179.705869 476.151808 
L 236.263121 476.151808 
" clip-path="url(#pf57410f6de)" style="fill: none; stroke: #ff7f0e; stroke-linecap: square"/>
   </g>
   <g id="line2d_61">
    <path d="M 292.820372 463.391891 
L 349.377624 463.391891 
" clip-path="url(#pf57410f6de)" style="fill: none; stroke: #ff7f0e; stroke-linecap: square"/>
   </g>
   <g id="line2d_62">
    <path d="M 405.934876 469.261453 
L 462.492127 469.261453 
" clip-path="url(#pf57410f6de)" style="fill: none; stroke: #ff7f0e; stroke-linecap: square"/>
   </g>
   <g id="line2d_63">
    <path d="M 519.049379 484.354612 
L 575.606631 484.354612 
" clip-path="url(#pf57410f6de)" style="fill: none; stroke: #ff7f0e; stroke-linecap: square"/>
   </g>
   <g id="line2d_64">
    <path d="M 632.163882 484.354612 
L 688.721134 484.354612 
" clip-path="url(#pf57410f6de)" style="fill: none; stroke: #ff7f0e; stroke-linecap: square"/>
   </g>
   <g id="patch_3">
    <path d="M 38.31274 703.54351 
L 38.31274 20.61447 
" style="fill: none; stroke: #000000; stroke-width: 0.8; stroke-linejoin: miter; stroke-linecap: square"/>
   </g>
   <g id="patch_4">
    <path d="M 716.99976 703.54351 
L 716.99976 20.61447 
" style="fill: none; stroke: #000000; stroke-width: 0.8; stroke-linejoin: miter; stroke-linecap: square"/>
   </g>
   <g id="patch_5">
    <path d="M 38.31274 703.54351 
L 716.99976 703.54351 
" style="fill: none; stroke: #000000; stroke-width: 0.8; stroke-linejoin: miter; stroke-linecap: square"/>
   </g>
   <g id="patch_6">
    <path d="M 38.31274 20.61447 
L 716.99976 20.61447 
" style="fill: none; stroke: #000000; stroke-width: 0.8; stroke-linejoin: miter; stroke-linecap: square"/>
   </g>
  </g>
  <g id="text_12">
   <!-- Rent cost by months in Kentron -->
   <g transform="translate(265.557187 12.118365)scale(0.12 -0.12)">
    <defs>
     <path id="DejaVuSans-52" d="M 2841 2188 
Q 3044 2119 3236 1894 
Q 3428 1669 3622 1275 
L 4263 0 
L 3584 0 
L 2988 1197 
Q 2756 1666 2539 1819 
Q 2322 1972 1947 1972 
L 1259 1972 
L 1259 0 
L 628 0 
L 628 4666 
L 2053 4666 
Q 2853 4666 3247 4331 
Q 3641 3997 3641 3322 
Q 3641 2881 3436 2590 
Q 3231 2300 2841 2188 
z
M 1259 4147 
L 1259 2491 
L 2053 2491 
Q 2509 2491 2742 2702 
Q 2975 2913 2975 3322 
Q 2975 3731 2742 3939 
Q 2509 4147 2053 4147 
L 1259 4147 
z
" transform="scale(0.015625)"/>
     <path id="DejaVuSans-20" transform="scale(0.015625)"/>
     <path id="DejaVuSans-68" d="M 3513 2113 
L 3513 0 
L 2938 0 
L 2938 2094 
Q 2938 2591 2744 2837 
Q 2550 3084 2163 3084 
Q 1697 3084 1428 2787 
Q 1159 2491 1159 1978 
L 1159 0 
L 581 0 
L 581 4863 
L 1159 4863 
L 1159 2956 
Q 1366 3272 1645 3428 
Q 1925 3584 2291 3584 
Q 2894 3584 3203 3211 
Q 3513 2838 3513 2113 
z
" transform="scale(0.015625)"/>
     <path id="DejaVuSans-4b" d="M 628 4666 
L 1259 4666 
L 1259 2694 
L 3353 4666 
L 4166 4666 
L 1850 2491 
L 4331 0 
L 3500 0 
L 1259 2247 
L 1259 0 
L 628 0 
L 628 4666 
z
" transform="scale(0.015625)"/>
    </defs>
    <use xlink:href="#DejaVuSans-52"/>
    <use xlink:href="#DejaVuSans-65" x="64.982422"/>
    <use xlink:href="#DejaVuSans-6e" x="126.505859"/>
    <use xlink:href="#DejaVuSans-74" x="189.884766"/>
    <use xlink:href="#DejaVuSans-20" x="229.09375"/>
    <use xlink:href="#DejaVuSans-63" x="260.880859"/>
    <use xlink:href="#DejaVuSans-6f" x="315.861328"/>
    <use xlink:href="#DejaVuSans-73" x="377.042969"/>
    <use xlink:href="#DejaVuSans-74" x="429.142578"/>
    <use xlink:href="#DejaVuSans-20" x="468.351562"/>
    <use xlink:href="#DejaVuSans-62" x="500.138672"/>
    <use xlink:href="#DejaVuSans-79" x="563.615234"/>
    <use xlink:href="#DejaVuSans-20" x="622.794922"/>
    <use xlink:href="#DejaVuSans-6d" x="654.582031"/>
    <use xlink:href="#DejaVuSans-6f" x="751.994141"/>
    <use xlink:href="#DejaVuSans-6e" x="813.175781"/>
    <use xlink:href="#DejaVuSans-74" x="876.554688"/>
    <use xlink:href="#DejaVuSans-68" x="915.763672"/>
    <use xlink:href="#DejaVuSans-73" x="979.142578"/>
    <use xlink:href="#DejaVuSans-20" x="1031.242188"/>
    <use xlink:href="#DejaVuSans-69" x="1063.029297"/>
    <use xlink:href="#DejaVuSans-6e" x="1090.8125"/>
    <use xlink:href="#DejaVuSans-20" x="1154.191406"/>
    <use xlink:href="#DejaVuSans-4b" x="1185.978516"/>
    <use xlink:href="#DejaVuSans-65" x="1246.554688"/>
    <use xlink:href="#DejaVuSans-6e" x="1308.078125"/>
    <use xlink:href="#DejaVuSans-74" x="1371.457031"/>
    <use xlink:href="#DejaVuSans-72" x="1410.666016"/>
    <use xlink:href="#DejaVuSans-6f" x="1449.529297"/>
    <use xlink:href="#DejaVuSans-6e" x="1510.710938"/>
   </g>
  </g>
 </g>
 <defs>
  <clipPath id="pf57410f6de">
   <rect x="38.31274" y="20.61447" width="678.68702" height="682.92904"/>
  </clipPath>
 </defs>
</svg>
